<?xml version="1.0" encoding="utf-8" standalone="no"?>
<!DOCTYPE svg PUBLIC "-//W3C//DTD SVG 1.1//EN"
  "http://www.w3.org/Graphics/SVG/1.1/DTD/svg11.dtd">
<svg xmlns:xlink="http://www.w3.org/1999/xlink" width="1008pt" height="720pt" viewBox="0 0 1008 720" xmlns="http://www.w3.org/2000/svg" version="1.1">
 <metadata>
  <rdf:RDF xmlns:dc="http://purl.org/dc/elements/1.1/" xmlns:cc="http://creativecommons.org/ns#" xmlns:rdf="http://www.w3.org/1999/02/22-rdf-syntax-ns#">
   <cc:Work>
    <dc:type rdf:resource="http://purl.org/dc/dcmitype/StillImage"/>
    <dc:date>2024-12-24T21:53:01.517480</dc:date>
    <dc:format>image/svg+xml</dc:format>
    <dc:creator>
     <cc:Agent>
      <dc:title>Matplotlib v3.7.5, https://matplotlib.org/</dc:title>
     </cc:Agent>
    </dc:creator>
   </cc:Work>
  </rdf:RDF>
 </metadata>
 <defs>
  <style type="text/css">*{stroke-linejoin: round; stroke-linecap: butt}</style>
 </defs>
 <g id="figure_1">
  <g id="patch_1">
   <path d="M 0 720 
L 1008 720 
L 1008 0 
L 0 0 
z
" style="fill: #ffffff"/>
  </g>
  <g id="patch_2">
   <path d="M 239.4 640.8 
L 793.8 640.8 
L 793.8 86.4 
L 239.4 86.4 
z
" style="fill: #ffffff"/>
  </g>
  <g id="pane3d_1">
   <g id="patch_3">
    <path d="M 766.922761 504.102727 
L 583.841775 350.640614 
L 586.386776 129.320814 
L 778.229131 269.318627 
" style="fill: #f2f2f2; opacity: 0.5; stroke: #f2f2f2; stroke-linejoin: miter"/>
   </g>
  </g>
  <g id="pane3d_2">
   <g id="patch_4">
    <path d="M 290.062116 436.030763 
L 583.841775 350.640614 
L 586.386776 129.320814 
L 279.578156 207.087856 
" style="fill: #e6e6e6; opacity: 0.5; stroke: #e6e6e6; stroke-linejoin: miter"/>
   </g>
  </g>
  <g id="pane3d_3">
   <g id="patch_5">
    <path d="M 455.501973 605.812756 
L 766.922761 504.102727 
L 583.841775 350.640614 
L 290.062116 436.030763 
" style="fill: #ececec; opacity: 0.5; stroke: #ececec; stroke-linejoin: miter"/>
   </g>
  </g>
  <g id="axis3d_1">
   <g id="line2d_1">
    <path d="M 766.922761 504.102727 
L 455.501973 605.812756 
" style="fill: none; stroke: #000000; stroke-width: 0.8; stroke-linecap: square"/>
   </g>
   <g id="text_1">
    <!-- RL, КОм -->
    <g transform="translate(597.320226 624.185247) rotate(-18.087038) scale(0.22 -0.22)">
     <defs>
      <path id="DejaVuSans-52" d="M 2841 2188 
Q 3044 2119 3236 1894 
Q 3428 1669 3622 1275 
L 4263 0 
L 3584 0 
L 2988 1197 
Q 2756 1666 2539 1819 
Q 2322 1972 1947 1972 
L 1259 1972 
L 1259 0 
L 628 0 
L 628 4666 
L 2053 4666 
Q 2853 4666 3247 4331 
Q 3641 3997 3641 3322 
Q 3641 2881 3436 2590 
Q 3231 2300 2841 2188 
z
M 1259 4147 
L 1259 2491 
L 2053 2491 
Q 2509 2491 2742 2702 
Q 2975 2913 2975 3322 
Q 2975 3731 2742 3939 
Q 2509 4147 2053 4147 
L 1259 4147 
z
" transform="scale(0.015625)"/>
      <path id="DejaVuSans-4c" d="M 628 4666 
L 1259 4666 
L 1259 531 
L 3531 531 
L 3531 0 
L 628 0 
L 628 4666 
z
" transform="scale(0.015625)"/>
      <path id="DejaVuSans-2c" d="M 750 794 
L 1409 794 
L 1409 256 
L 897 -744 
L 494 -744 
L 750 256 
L 750 794 
z
" transform="scale(0.015625)"/>
      <path id="DejaVuSans-20" transform="scale(0.015625)"/>
      <path id="DejaVuSans-41a" d="M 628 4666 
L 1259 4666 
L 1259 2359 
L 3516 4666 
L 4325 4666 
L 2522 2822 
L 4419 0 
L 3731 0 
L 2113 2403 
L 1259 1531 
L 1259 0 
L 628 0 
L 628 4666 
z
" transform="scale(0.015625)"/>
      <path id="DejaVuSans-41e" d="M 2522 4238 
Q 1834 4238 1429 3725 
Q 1025 3213 1025 2328 
Q 1025 1447 1429 934 
Q 1834 422 2522 422 
Q 3209 422 3611 934 
Q 4013 1447 4013 2328 
Q 4013 3213 3611 3725 
Q 3209 4238 2522 4238 
z
M 2522 4750 
Q 3503 4750 4090 4092 
Q 4678 3434 4678 2328 
Q 4678 1225 4090 567 
Q 3503 -91 2522 -91 
Q 1538 -91 948 565 
Q 359 1222 359 2328 
Q 359 3434 948 4092 
Q 1538 4750 2522 4750 
z
" transform="scale(0.015625)"/>
      <path id="DejaVuSans-43c" d="M 581 3500 
L 1422 3500 
L 2416 1156 
L 3413 3500 
L 4247 3500 
L 4247 0 
L 3669 0 
L 3669 2950 
L 2703 672 
L 2128 672 
L 1159 2950 
L 1159 0 
L 581 0 
L 581 3500 
z
" transform="scale(0.015625)"/>
     </defs>
     <use xlink:href="#DejaVuSans-52"/>
     <use xlink:href="#DejaVuSans-4c" x="69.482422"/>
     <use xlink:href="#DejaVuSans-2c" x="125.195312"/>
     <use xlink:href="#DejaVuSans-20" x="156.982422"/>
     <use xlink:href="#DejaVuSans-41a" x="188.769531"/>
     <use xlink:href="#DejaVuSans-41e" x="259.765625"/>
     <use xlink:href="#DejaVuSans-43c" x="338.476562"/>
    </g>
   </g>
   <g id="Line3DCollection_1">
    <path d="M 502.078022 590.601018 
L 333.835041 423.307702 
L 325.374572 195.479799 
" style="fill: none; stroke: #b0b0b0; stroke-width: 0.8"/>
    <path d="M 565.519548 569.881016 
L 393.551351 405.950528 
L 387.804913 179.655528 
" style="fill: none; stroke: #b0b0b0; stroke-width: 0.8"/>
    <path d="M 627.636893 549.593491 
L 452.125338 388.925382 
L 448.988968 164.147154 
" style="fill: none; stroke: #b0b0b0; stroke-width: 0.8"/>
    <path d="M 688.471087 529.725043 
L 509.58947 372.222828 
L 508.963687 148.94531 
" style="fill: none; stroke: #b0b0b0; stroke-width: 0.8"/>
    <path d="M 748.061483 510.26282 
L 565.974995 355.833782 
L 567.764575 134.040999 
" style="fill: none; stroke: #b0b0b0; stroke-width: 0.8"/>
   </g>
   <g id="xtick_1">
    <g id="line2d_2">
     <path d="M 500.607897 589.139192 
L 505.024849 593.531212 
" style="fill: none; stroke: #000000; stroke-width: 0.8; stroke-linecap: square"/>
    </g>
    <g id="text_2">
     <!-- 8.0 -->
     <g transform="translate(491.963315 623.816936) scale(0.22 -0.22)">
      <defs>
       <path id="DejaVuSans-38" d="M 2034 2216 
Q 1584 2216 1326 1975 
Q 1069 1734 1069 1313 
Q 1069 891 1326 650 
Q 1584 409 2034 409 
Q 2484 409 2743 651 
Q 3003 894 3003 1313 
Q 3003 1734 2745 1975 
Q 2488 2216 2034 2216 
z
M 1403 2484 
Q 997 2584 770 2862 
Q 544 3141 544 3541 
Q 544 4100 942 4425 
Q 1341 4750 2034 4750 
Q 2731 4750 3128 4425 
Q 3525 4100 3525 3541 
Q 3525 3141 3298 2862 
Q 3072 2584 2669 2484 
Q 3125 2378 3379 2068 
Q 3634 1759 3634 1313 
Q 3634 634 3220 271 
Q 2806 -91 2034 -91 
Q 1263 -91 848 271 
Q 434 634 434 1313 
Q 434 1759 690 2068 
Q 947 2378 1403 2484 
z
M 1172 3481 
Q 1172 3119 1398 2916 
Q 1625 2713 2034 2713 
Q 2441 2713 2670 2916 
Q 2900 3119 2900 3481 
Q 2900 3844 2670 4047 
Q 2441 4250 2034 4250 
Q 1625 4250 1398 4047 
Q 1172 3844 1172 3481 
z
" transform="scale(0.015625)"/>
       <path id="DejaVuSans-2e" d="M 684 794 
L 1344 794 
L 1344 0 
L 684 0 
L 684 794 
z
" transform="scale(0.015625)"/>
       <path id="DejaVuSans-30" d="M 2034 4250 
Q 1547 4250 1301 3770 
Q 1056 3291 1056 2328 
Q 1056 1369 1301 889 
Q 1547 409 2034 409 
Q 2525 409 2770 889 
Q 3016 1369 3016 2328 
Q 3016 3291 2770 3770 
Q 2525 4250 2034 4250 
z
M 2034 4750 
Q 2819 4750 3233 4129 
Q 3647 3509 3647 2328 
Q 3647 1150 3233 529 
Q 2819 -91 2034 -91 
Q 1250 -91 836 529 
Q 422 1150 422 2328 
Q 422 3509 836 4129 
Q 1250 4750 2034 4750 
z
" transform="scale(0.015625)"/>
      </defs>
      <use xlink:href="#DejaVuSans-38"/>
      <use xlink:href="#DejaVuSans-2e" x="63.623047"/>
      <use xlink:href="#DejaVuSans-30" x="95.410156"/>
     </g>
    </g>
   </g>
   <g id="xtick_2">
    <g id="line2d_3">
     <path d="M 564.018209 568.449849 
L 568.528871 572.749685 
" style="fill: none; stroke: #000000; stroke-width: 0.8; stroke-linecap: square"/>
    </g>
    <g id="text_3">
     <!-- 8.5 -->
     <g transform="translate(555.44344 602.884538) scale(0.22 -0.22)">
      <defs>
       <path id="DejaVuSans-35" d="M 691 4666 
L 3169 4666 
L 3169 4134 
L 1269 4134 
L 1269 2991 
Q 1406 3038 1543 3061 
Q 1681 3084 1819 3084 
Q 2600 3084 3056 2656 
Q 3513 2228 3513 1497 
Q 3513 744 3044 326 
Q 2575 -91 1722 -91 
Q 1428 -91 1123 -41 
Q 819 9 494 109 
L 494 744 
Q 775 591 1075 516 
Q 1375 441 1709 441 
Q 2250 441 2565 725 
Q 2881 1009 2881 1497 
Q 2881 1984 2565 2268 
Q 2250 2553 1709 2553 
Q 1456 2553 1204 2497 
Q 953 2441 691 2322 
L 691 4666 
z
" transform="scale(0.015625)"/>
      </defs>
      <use xlink:href="#DejaVuSans-38"/>
      <use xlink:href="#DejaVuSans-2e" x="63.623047"/>
      <use xlink:href="#DejaVuSans-35" x="95.410156"/>
     </g>
    </g>
   </g>
   <g id="xtick_3">
    <g id="line2d_4">
     <path d="M 626.105957 548.19203 
L 630.705472 552.402553 
" style="fill: none; stroke: #000000; stroke-width: 0.8; stroke-linecap: square"/>
    </g>
    <g id="text_4">
     <!-- 9.0 -->
     <g transform="translate(617.59617 582.389845) scale(0.22 -0.22)">
      <defs>
       <path id="DejaVuSans-39" d="M 703 97 
L 703 672 
Q 941 559 1184 500 
Q 1428 441 1663 441 
Q 2288 441 2617 861 
Q 2947 1281 2994 2138 
Q 2813 1869 2534 1725 
Q 2256 1581 1919 1581 
Q 1219 1581 811 2004 
Q 403 2428 403 3163 
Q 403 3881 828 4315 
Q 1253 4750 1959 4750 
Q 2769 4750 3195 4129 
Q 3622 3509 3622 2328 
Q 3622 1225 3098 567 
Q 2575 -91 1691 -91 
Q 1453 -91 1209 -44 
Q 966 3 703 97 
z
M 1959 2075 
Q 2384 2075 2632 2365 
Q 2881 2656 2881 3163 
Q 2881 3666 2632 3958 
Q 2384 4250 1959 4250 
Q 1534 4250 1286 3958 
Q 1038 3666 1038 3163 
Q 1038 2656 1286 2365 
Q 1534 2075 1959 2075 
z
" transform="scale(0.015625)"/>
      </defs>
      <use xlink:href="#DejaVuSans-39"/>
      <use xlink:href="#DejaVuSans-2e" x="63.623047"/>
      <use xlink:href="#DejaVuSans-30" x="95.410156"/>
     </g>
    </g>
   </g>
   <g id="xtick_4">
    <g id="line2d_5">
     <path d="M 686.912089 528.352372 
L 691.595842 532.476337 
" style="fill: none; stroke: #000000; stroke-width: 0.8; stroke-linecap: square"/>
    </g>
    <g id="text_5">
     <!-- 9.5 -->
     <g transform="translate(678.462708 562.319271) scale(0.22 -0.22)">
      <use xlink:href="#DejaVuSans-39"/>
      <use xlink:href="#DejaVuSans-2e" x="63.623047"/>
      <use xlink:href="#DejaVuSans-35" x="95.410156"/>
     </g>
    </g>
   </g>
   <g id="xtick_5">
    <g id="line2d_6">
     <path d="M 746.475885 508.918061 
L 751.239485 512.958109 
" style="fill: none; stroke: #000000; stroke-width: 0.8; stroke-linecap: square"/>
    </g>
    <g id="text_6">
     <!-- 10.0 -->
     <g transform="translate(731.08382 542.659784) scale(0.22 -0.22)">
      <defs>
       <path id="DejaVuSans-31" d="M 794 531 
L 1825 531 
L 1825 4091 
L 703 3866 
L 703 4441 
L 1819 4666 
L 2450 4666 
L 2450 531 
L 3481 531 
L 3481 0 
L 794 0 
L 794 531 
z
" transform="scale(0.015625)"/>
      </defs>
      <use xlink:href="#DejaVuSans-31"/>
      <use xlink:href="#DejaVuSans-30" x="63.623047"/>
      <use xlink:href="#DejaVuSans-2e" x="127.246094"/>
      <use xlink:href="#DejaVuSans-30" x="159.033203"/>
     </g>
    </g>
   </g>
  </g>
  <g id="axis3d_2">
   <g id="line2d_7">
    <path d="M 290.062116 436.030763 
L 455.501973 605.812756 
" style="fill: none; stroke: #000000; stroke-width: 0.8; stroke-linecap: square"/>
   </g>
   <g id="text_7">
    <!-- R, КОм -->
    <g transform="translate(298.409418 533.457374) rotate(-314.257888) scale(0.22 -0.22)">
     <use xlink:href="#DejaVuSans-52"/>
     <use xlink:href="#DejaVuSans-2c" x="69.482422"/>
     <use xlink:href="#DejaVuSans-20" x="101.269531"/>
     <use xlink:href="#DejaVuSans-41a" x="133.056641"/>
     <use xlink:href="#DejaVuSans-41e" x="204.052734"/>
     <use xlink:href="#DejaVuSans-43c" x="282.763672"/>
    </g>
   </g>
   <g id="Line3DCollection_2">
    <path d="M 743.636084 244.074198 
L 734.012194 476.516437 
L 425.654719 575.182129 
" style="fill: none; stroke: #b0b0b0; stroke-width: 0.8"/>
    <path d="M 702.178939 213.820661 
L 694.512026 443.406614 
L 389.893806 538.482636 
" style="fill: none; stroke: #b0b0b0; stroke-width: 0.8"/>
    <path d="M 662.243544 184.677629 
L 656.400451 411.460736 
L 355.454585 503.139522 
" style="fill: none; stroke: #b0b0b0; stroke-width: 0.8"/>
    <path d="M 623.747622 156.585058 
L 619.605512 380.618488 
L 322.265111 469.078958 
" style="fill: none; stroke: #b0b0b0; stroke-width: 0.8"/>
   </g>
   <g id="xtick_6">
    <g id="line2d_8">
     <path d="M 428.251993 574.351075 
L 420.453516 576.846367 
" style="fill: none; stroke: #000000; stroke-width: 0.8; stroke-linecap: square"/>
    </g>
    <g id="text_8">
     <!-- 1.2 -->
     <g transform="translate(395.402999 605.183648) scale(0.22 -0.22)">
      <defs>
       <path id="DejaVuSans-32" d="M 1228 531 
L 3431 531 
L 3431 0 
L 469 0 
L 469 531 
Q 828 903 1448 1529 
Q 2069 2156 2228 2338 
Q 2531 2678 2651 2914 
Q 2772 3150 2772 3378 
Q 2772 3750 2511 3984 
Q 2250 4219 1831 4219 
Q 1534 4219 1204 4116 
Q 875 4013 500 3803 
L 500 4441 
Q 881 4594 1212 4672 
Q 1544 4750 1819 4750 
Q 2544 4750 2975 4387 
Q 3406 4025 3406 3419 
Q 3406 3131 3298 2873 
Q 3191 2616 2906 2266 
Q 2828 2175 2409 1742 
Q 1991 1309 1228 531 
z
" transform="scale(0.015625)"/>
      </defs>
      <use xlink:href="#DejaVuSans-31"/>
      <use xlink:href="#DejaVuSans-2e" x="63.623047"/>
      <use xlink:href="#DejaVuSans-32" x="95.410156"/>
     </g>
    </g>
   </g>
   <g id="xtick_7">
    <g id="line2d_9">
     <path d="M 392.457161 537.682574 
L 384.760655 540.084771 
" style="fill: none; stroke: #000000; stroke-width: 0.8; stroke-linecap: square"/>
    </g>
    <g id="text_9">
     <!-- 1.3 -->
     <g transform="translate(359.872375 568.223716) scale(0.22 -0.22)">
      <defs>
       <path id="DejaVuSans-33" d="M 2597 2516 
Q 3050 2419 3304 2112 
Q 3559 1806 3559 1356 
Q 3559 666 3084 287 
Q 2609 -91 1734 -91 
Q 1441 -91 1130 -33 
Q 819 25 488 141 
L 488 750 
Q 750 597 1062 519 
Q 1375 441 1716 441 
Q 2309 441 2620 675 
Q 2931 909 2931 1356 
Q 2931 1769 2642 2001 
Q 2353 2234 1838 2234 
L 1294 2234 
L 1294 2753 
L 1863 2753 
Q 2328 2753 2575 2939 
Q 2822 3125 2822 3475 
Q 2822 3834 2567 4026 
Q 2313 4219 1838 4219 
Q 1578 4219 1281 4162 
Q 984 4106 628 3988 
L 628 4550 
Q 988 4650 1302 4700 
Q 1616 4750 1894 4750 
Q 2613 4750 3031 4423 
Q 3450 4097 3450 3541 
Q 3450 3153 3228 2886 
Q 3006 2619 2597 2516 
z
" transform="scale(0.015625)"/>
      </defs>
      <use xlink:href="#DejaVuSans-31"/>
      <use xlink:href="#DejaVuSans-2e" x="63.623047"/>
      <use xlink:href="#DejaVuSans-33" x="95.410156"/>
     </g>
    </g>
   </g>
   <g id="xtick_8">
    <g id="line2d_10">
     <path d="M 357.98473 502.368751 
L 350.388053 504.682968 
" style="fill: none; stroke: #000000; stroke-width: 0.8; stroke-linecap: square"/>
    </g>
    <g id="text_10">
     <!-- 1.4 -->
     <g transform="translate(325.655291 532.630164) scale(0.22 -0.22)">
      <defs>
       <path id="DejaVuSans-34" d="M 2419 4116 
L 825 1625 
L 2419 1625 
L 2419 4116 
z
M 2253 4666 
L 3047 4666 
L 3047 1625 
L 3713 1625 
L 3713 1100 
L 3047 1100 
L 3047 0 
L 2419 0 
L 2419 1100 
L 313 1100 
L 313 1709 
L 2253 4666 
z
" transform="scale(0.015625)"/>
      </defs>
      <use xlink:href="#DejaVuSans-31"/>
      <use xlink:href="#DejaVuSans-2e" x="63.623047"/>
      <use xlink:href="#DejaVuSans-34" x="95.410156"/>
     </g>
    </g>
   </g>
   <g id="xtick_9">
    <g id="line2d_11">
     <path d="M 324.762747 468.335897 
L 317.26379 470.566879 
" style="fill: none; stroke: #000000; stroke-width: 0.8; stroke-linecap: square"/>
    </g>
    <g id="text_11">
     <!-- 1.5 -->
     <g transform="translate(292.680227 498.328596) scale(0.22 -0.22)">
      <use xlink:href="#DejaVuSans-31"/>
      <use xlink:href="#DejaVuSans-2e" x="63.623047"/>
      <use xlink:href="#DejaVuSans-35" x="95.410156"/>
     </g>
    </g>
   </g>
  </g>
  <g id="axis3d_3">
   <g id="line2d_12">
    <path d="M 290.062116 436.030763 
L 279.578156 207.087856 
" style="fill: none; stroke: #000000; stroke-width: 0.8; stroke-linecap: square"/>
   </g>
   <g id="text_12">
    <!-- Ux, В -->
    <g transform="translate(237.023904 289.847101) rotate(-272.621908) scale(0.22 -0.22)">
     <defs>
      <path id="DejaVuSans-55" d="M 556 4666 
L 1191 4666 
L 1191 1831 
Q 1191 1081 1462 751 
Q 1734 422 2344 422 
Q 2950 422 3222 751 
Q 3494 1081 3494 1831 
L 3494 4666 
L 4128 4666 
L 4128 1753 
Q 4128 841 3676 375 
Q 3225 -91 2344 -91 
Q 1459 -91 1007 375 
Q 556 841 556 1753 
L 556 4666 
z
" transform="scale(0.015625)"/>
      <path id="DejaVuSans-78" d="M 3513 3500 
L 2247 1797 
L 3578 0 
L 2900 0 
L 1881 1375 
L 863 0 
L 184 0 
L 1544 1831 
L 300 3500 
L 978 3500 
L 1906 2253 
L 2834 3500 
L 3513 3500 
z
" transform="scale(0.015625)"/>
      <path id="DejaVuSans-412" d="M 1259 2228 
L 1259 519 
L 2272 519 
Q 2781 519 3026 730 
Q 3272 941 3272 1375 
Q 3272 1813 3026 2020 
Q 2781 2228 2272 2228 
L 1259 2228 
z
M 1259 4147 
L 1259 2741 
L 2194 2741 
Q 2656 2741 2882 2914 
Q 3109 3088 3109 3444 
Q 3109 3797 2882 3972 
Q 2656 4147 2194 4147 
L 1259 4147 
z
M 628 4666 
L 2241 4666 
Q 2963 4666 3353 4366 
Q 3744 4066 3744 3513 
Q 3744 3084 3544 2831 
Q 3344 2578 2956 2516 
Q 3422 2416 3680 2098 
Q 3938 1781 3938 1306 
Q 3938 681 3513 340 
Q 3088 0 2303 0 
L 628 0 
L 628 4666 
z
" transform="scale(0.015625)"/>
     </defs>
     <use xlink:href="#DejaVuSans-55"/>
     <use xlink:href="#DejaVuSans-78" x="73.193359"/>
     <use xlink:href="#DejaVuSans-2c" x="132.373047"/>
     <use xlink:href="#DejaVuSans-20" x="164.160156"/>
     <use xlink:href="#DejaVuSans-412" x="195.947266"/>
    </g>
   </g>
   <g id="Line3DCollection_3">
    <path d="M 287.945025 389.798913 
L 584.356569 305.872802 
L 769.202855 456.755095 
" style="fill: none; stroke: #b0b0b0; stroke-width: 0.8"/>
    <path d="M 285.802793 343.018028 
L 584.877029 260.6122 
L 771.511607 408.812363 
" style="fill: none; stroke: #b0b0b0; stroke-width: 0.8"/>
    <path d="M 283.621337 295.380617 
L 585.406558 214.563024 
L 773.864266 359.957878 
" style="fill: none; stroke: #b0b0b0; stroke-width: 0.8"/>
    <path d="M 281.399572 246.862939 
L 585.945394 167.704484 
L 776.262096 310.16538 
" style="fill: none; stroke: #b0b0b0; stroke-width: 0.8"/>
   </g>
   <g id="xtick_10">
    <g id="line2d_13">
     <path d="M 290.433787 389.094244 
L 282.961529 391.209943 
" style="fill: none; stroke: #000000; stroke-width: 0.8; stroke-linecap: square"/>
    </g>
    <g id="text_13">
     <!-- 3 -->
     <g transform="translate(262.507121 403.950083) scale(0.22 -0.22)">
      <use xlink:href="#DejaVuSans-33"/>
     </g>
    </g>
   </g>
   <g id="xtick_11">
    <g id="line2d_14">
     <path d="M 288.314986 342.325828 
L 280.772322 344.404106 
" style="fill: none; stroke: #000000; stroke-width: 0.8; stroke-linecap: square"/>
    </g>
    <g id="text_14">
     <!-- 4 -->
     <g transform="translate(260.201005 357.214615) scale(0.22 -0.22)">
      <use xlink:href="#DejaVuSans-34"/>
     </g>
    </g>
   </g>
   <g id="xtick_12">
    <g id="line2d_15">
     <path d="M 286.157407 294.701462 
L 278.543 296.740588 
" style="fill: none; stroke: #000000; stroke-width: 0.8; stroke-linecap: square"/>
    </g>
    <g id="text_15">
     <!-- 5 -->
     <g transform="translate(257.852728 309.624719) scale(0.22 -0.22)">
      <use xlink:href="#DejaVuSans-35"/>
     </g>
    </g>
   </g>
   <g id="xtick_13">
    <g id="line2d_16">
     <path d="M 283.959976 246.197431 
L 276.272449 248.195596 
" style="fill: none; stroke: #000000; stroke-width: 0.8; stroke-linecap: square"/>
    </g>
    <g id="text_16">
     <!-- 6 -->
     <g transform="translate(255.461123 261.156749) scale(0.22 -0.22)">
      <defs>
       <path id="DejaVuSans-36" d="M 2113 2584 
Q 1688 2584 1439 2293 
Q 1191 2003 1191 1497 
Q 1191 994 1439 701 
Q 1688 409 2113 409 
Q 2538 409 2786 701 
Q 3034 994 3034 1497 
Q 3034 2003 2786 2293 
Q 2538 2584 2113 2584 
z
M 3366 4563 
L 3366 3988 
Q 3128 4100 2886 4159 
Q 2644 4219 2406 4219 
Q 1781 4219 1451 3797 
Q 1122 3375 1075 2522 
Q 1259 2794 1537 2939 
Q 1816 3084 2150 3084 
Q 2853 3084 3261 2657 
Q 3669 2231 3669 1497 
Q 3669 778 3244 343 
Q 2819 -91 2113 -91 
Q 1303 -91 875 529 
Q 447 1150 447 2328 
Q 447 3434 972 4092 
Q 1497 4750 2381 4750 
Q 2619 4750 2861 4703 
Q 3103 4656 3366 4563 
z
" transform="scale(0.015625)"/>
      </defs>
      <use xlink:href="#DejaVuSans-36"/>
     </g>
    </g>
   </g>
  </g>
  <g id="axes_1">
   <g id="Poly3DCollection_1">
    <path d="M 574.289369 183.6868 
L 578.777723 157.021907 
L 585.017535 177.297645 
z
" clip-path="url(#pbcd9ab00df)" style="fill: #f9f9f9"/>
    <path d="M 580.555222 202.2405 
L 574.289369 183.6868 
L 585.017535 177.297645 
L 591.270814 196.749342 
z
" clip-path="url(#pbcd9ab00df)" style="fill: #e7e7e7"/>
    <path d="M 586.849374 219.01892 
L 580.555222 202.2405 
L 591.270814 196.749342 
L 597.551964 214.553135 
z
" clip-path="url(#pbcd9ab00df)" style="fill: #d5d5d5"/>
    <path d="M 563.538992 189.804375 
L 574.289369 183.6868 
z
" clip-path="url(#pbcd9ab00df)" style="fill: #ececec"/>
    <path d="M 569.814301 207.432712 
L 563.538992 189.804375 
L 574.289369 183.6868 
L 580.555222 202.2405 
z
" clip-path="url(#pbcd9ab00df)" style="fill: #e3e3e3"/>
    <path d="M 593.189105 233.201723 
L 586.849374 219.01892 
L 597.551964 214.553135 
L 603.878409 229.957276 
z
" clip-path="url(#pbcd9ab00df)" style="fill: #c5c5c5"/>
    <path d="M 576.1201 222.929197 
L 569.814301 207.432712 
L 580.555222 202.2405 
L 586.849374 219.01892 
z
" clip-path="url(#pbcd9ab00df)" style="fill: #d2d2d2"/>
    <path d="M 552.765024 195.571392 
L 563.538992 189.804375 
z
" clip-path="url(#pbcd9ab00df)" style="fill: #e8e8e8"/>
    <path d="M 559.047073 212.170206 
L 552.765024 195.571392 
L 563.538992 189.804375 
L 569.814301 207.432712 
z
" clip-path="url(#pbcd9ab00df)" style="fill: #dfdfdf"/>
    <path d="M 599.565456 246.10356 
L 593.189105 233.201723 
L 603.878409 229.957276 
L 610.253505 243.31168 
z
" clip-path="url(#pbcd9ab00df)" style="fill: #b9b9b9"/>
    <path d="M 582.464585 236.268321 
L 576.1201 222.929197 
L 586.849374 219.01892 
L 593.189105 233.201723 
z
" clip-path="url(#pbcd9ab00df)" style="fill: #c4c4c4"/>
    <path d="M 541.965136 200.997046 
L 552.765024 195.571392 
z
" clip-path="url(#pbcd9ab00df)" style="fill: #e4e4e4"/>
    <path d="M 565.359387 226.434642 
L 559.047073 212.170206 
L 569.814301 207.432712 
L 576.1201 222.929197 
z
" clip-path="url(#pbcd9ab00df)" style="fill: #d0d0d0"/>
    <path d="M 548.250643 216.438108 
L 541.965136 200.997046 
L 552.765024 195.571392 
L 559.047073 212.170206 
z
" clip-path="url(#pbcd9ab00df)" style="fill: #dcdcdc"/>
    <path d="M 605.96183 259.119724 
L 599.565456 246.10356 
L 610.253505 243.31168 
L 616.663136 255.873163 
z
" clip-path="url(#pbcd9ab00df)" style="fill: #aeaeae"/>
    <path d="M 531.137049 206.094501 
L 541.965136 200.997046 
z
" clip-path="url(#pbcd9ab00df)" style="fill: #e1e1e1"/>
    <path d="M 588.833147 249.311511 
L 582.464585 236.268321 
L 593.189105 233.201723 
L 599.565456 246.10356 
z
" clip-path="url(#pbcd9ab00df)" style="fill: #b9b9b9"/>
    <path d="M 571.699886 239.560652 
L 565.359387 226.434642 
L 576.1201 222.929197 
L 582.464585 236.268321 
z
" clip-path="url(#pbcd9ab00df)" style="fill: #c4c4c4"/>
    <path d="M 554.56245 229.897946 
L 548.250643 216.438108 
L 559.047073 212.170206 
L 565.359387 226.434642 
z
" clip-path="url(#pbcd9ab00df)" style="fill: #cecece"/>
    <path d="M 537.421634 220.354422 
L 531.137049 206.094501 
L 541.965136 200.997046 
L 548.250643 216.438108 
z
" clip-path="url(#pbcd9ab00df)" style="fill: #dadada"/>
    <path d="M 520.278738 211.118634 
L 531.137049 206.094501 
z
" clip-path="url(#pbcd9ab00df)" style="fill: #dddddd"/>
    <path d="M 612.352459 273.7802 
L 605.96183 259.119724 
L 616.663136 255.873163 
L 623.086563 268.920819 
z
" clip-path="url(#pbcd9ab00df)" style="fill: #a3a3a3"/>
    <path d="M 595.202899 263.859543 
L 588.833147 249.311511 
L 599.565456 246.10356 
L 605.96183 259.119724 
z
" clip-path="url(#pbcd9ab00df)" style="fill: #adadad"/>
    <path d="M 578.048154 253.982831 
L 571.699886 239.560652 
L 582.464585 236.268321 
L 588.833147 249.311511 
z
" clip-path="url(#pbcd9ab00df)" style="fill: #b8b8b8"/>
    <path d="M 560.888467 244.180552 
L 554.56245 229.897946 
L 565.359387 226.434642 
L 571.699886 239.560652 
z
" clip-path="url(#pbcd9ab00df)" style="fill: #c2c2c2"/>
    <path d="M 543.725368 234.240814 
L 537.421634 220.354422 
L 548.250643 216.438108 
L 554.56245 229.897946 
z
" clip-path="url(#pbcd9ab00df)" style="fill: #cdcdcd"/>
    <path d="M 526.557337 224.612066 
L 520.278738 211.118634 
L 531.137049 206.094501 
L 537.421634 220.354422 
z
" clip-path="url(#pbcd9ab00df)" style="fill: #d7d7d7"/>
    <path d="M 509.391656 216.835733 
L 520.278738 211.118634 
z
" clip-path="url(#pbcd9ab00df)" style="fill: #dadada"/>
    <path d="M 618.741783 289.506682 
L 612.352459 273.7802 
L 623.086563 268.920819 
L 629.498533 283.637273 
z
" clip-path="url(#pbcd9ab00df)" style="fill: #969696"/>
    <path d="M 601.578926 279.201264 
L 595.202899 263.859543 
L 605.96183 259.119724 
L 612.352459 273.7802 
z
" clip-path="url(#pbcd9ab00df)" style="fill: #a0a0a0"/>
    <path d="M 584.411664 268.650003 
L 578.048154 253.982831 
L 588.833147 249.311511 
L 595.202899 263.859543 
z
" clip-path="url(#pbcd9ab00df)" style="fill: #ababab"/>
    <path d="M 567.237647 257.849751 
L 560.888467 244.180552 
L 571.699886 239.560652 
L 578.048154 253.982831 
z
" clip-path="url(#pbcd9ab00df)" style="fill: #b6b6b6"/>
    <path d="M 550.048222 248.07942 
L 543.725368 234.240814 
L 554.56245 229.897946 
L 560.888467 244.180552 
z
" clip-path="url(#pbcd9ab00df)" style="fill: #c1c1c1"/>
    <path d="M 515.660033 229.48329 
L 509.391656 216.835733 
L 520.278738 211.118634 
L 526.557337 224.612066 
z
" clip-path="url(#pbcd9ab00df)" style="fill: #d5d5d5"/>
    <path d="M 532.855441 238.150341 
L 526.557337 224.612066 
L 537.421634 220.354422 
L 543.725368 234.240814 
z
" clip-path="url(#pbcd9ab00df)" style="fill: #cbcbcb"/>
    <path d="M 498.47974 223.222446 
L 509.391656 216.835733 
z
" clip-path="url(#pbcd9ab00df)" style="fill: #d6d6d6"/>
    <path d="M 625.164458 304.30156 
L 618.741783 289.506682 
L 629.498533 283.637273 
L 635.900684 299.65734 
z
" clip-path="url(#pbcd9ab00df)" style="fill: #888888"/>
    <path d="M 607.999915 292.740508 
L 601.578926 279.201264 
L 612.352459 273.7802 
L 618.741783 289.506682 
z
" clip-path="url(#pbcd9ab00df)" style="fill: #939393"/>
    <path d="M 590.815002 281.567716 
L 584.411664 268.650003 
L 595.202899 263.859543 
L 601.578926 279.201264 
z
" clip-path="url(#pbcd9ab00df)" style="fill: #9f9f9f"/>
    <path d="M 573.605143 271.686977 
L 567.237647 257.849751 
L 578.048154 253.982831 
L 584.411664 268.650003 
z
" clip-path="url(#pbcd9ab00df)" style="fill: #aaaaaa"/>
    <path d="M 504.728668 233.705632 
L 498.47974 223.222446 
L 509.391656 216.835733 
L 515.660033 229.48329 
z
" clip-path="url(#pbcd9ab00df)" style="fill: #d1d1d1"/>
    <path d="M 556.394846 261.17629 
L 550.048222 248.07942 
L 560.888467 244.180552 
L 567.237647 257.849751 
z
" clip-path="url(#pbcd9ab00df)" style="fill: #b5b5b5"/>
    <path d="M 487.542783 229.674975 
L 498.47974 223.222446 
z
" clip-path="url(#pbcd9ab00df)" style="fill: #d1d1d1"/>
    <path d="M 521.950469 243.387765 
L 515.660033 229.48329 
L 526.557337 224.612066 
L 532.855441 238.150341 
z
" clip-path="url(#pbcd9ab00df)" style="fill: #c9c9c9"/>
    <path d="M 539.173761 251.512066 
L 532.855441 238.150341 
L 543.725368 234.240814 
L 550.048222 248.07942 
z
" clip-path="url(#pbcd9ab00df)" style="fill: #bfbfbf"/>
    <path d="M 631.660399 316.408277 
L 625.164458 304.30156 
L 635.900684 299.65734 
L 642.325239 315.341799 
z
" clip-path="url(#pbcd9ab00df)" style="fill: #7b7b7b"/>
    <path d="M 614.468924 304.710172 
L 607.999915 292.740508 
L 618.741783 289.506682 
L 625.164458 304.30156 
z
" clip-path="url(#pbcd9ab00df)" style="fill: #878787"/>
    <path d="M 597.240207 294.514229 
L 590.815002 281.567716 
L 601.578926 279.201264 
L 607.999915 292.740508 
z
" clip-path="url(#pbcd9ab00df)" style="fill: #939393"/>
    <path d="M 493.765054 238.340647 
L 487.542783 229.674975 
L 498.47974 223.222446 
L 504.728668 233.705632 
z
" clip-path="url(#pbcd9ab00df)" style="fill: #cecece"/>
    <path d="M 476.575231 235.546857 
L 487.542783 229.674975 
z
" clip-path="url(#pbcd9ab00df)" style="fill: #cccccc"/>
    <path d="M 580.010372 283.829352 
L 573.605143 271.686977 
L 584.411664 268.650003 
L 590.815002 281.567716 
z
" clip-path="url(#pbcd9ab00df)" style="fill: #9e9e9e"/>
    <path d="M 511.015768 248.87725 
L 504.728668 233.705632 
L 515.660033 229.48329 
L 521.950469 243.387765 
z
" clip-path="url(#pbcd9ab00df)" style="fill: #c6c6c6"/>
    <path d="M 562.764433 274.045096 
L 556.394846 261.17629 
L 567.237647 257.849751 
L 573.605143 271.686977 
z
" clip-path="url(#pbcd9ab00df)" style="fill: #aaaaaa"/>
    <path d="M 528.260981 255.703779 
L 521.950469 243.387765 
L 532.855441 238.150341 
L 539.173761 251.512066 
z
" clip-path="url(#pbcd9ab00df)" style="fill: #bebebe"/>
    <path d="M 545.513253 264.67962 
L 539.173761 251.512066 
L 550.048222 248.07942 
L 556.394846 261.17629 
z
" clip-path="url(#pbcd9ab00df)" style="fill: #b4b4b4"/>
    <path d="M 638.226363 326.464101 
L 631.660399 316.408277 
L 642.325239 315.341799 
L 648.81353 329.024107 
z
" clip-path="url(#pbcd9ab00df)" style="fill: #707070"/>
    <path d="M 482.769986 243.191867 
L 476.575231 235.546857 
L 487.542783 229.674975 
L 493.765054 238.340647 
z
" clip-path="url(#pbcd9ab00df)" style="fill: #cacaca"/>
    <path d="M 620.983143 315.601796 
L 614.468924 304.710172 
L 625.164458 304.30156 
L 631.660399 316.408277 
z
" clip-path="url(#pbcd9ab00df)" style="fill: #7d7d7d"/>
    <path d="M 465.566137 240.190949 
L 476.575231 235.546857 
z
" clip-path="url(#pbcd9ab00df)" style="fill: #c9c9c9"/>
    <path d="M 603.721913 305.221008 
L 597.240207 294.514229 
L 607.999915 292.740508 
L 614.468924 304.710172 
z
" clip-path="url(#pbcd9ab00df)" style="fill: #898989"/>
    <path d="M 500.048047 253.596986 
L 493.765054 238.340647 
L 504.728668 233.705632 
L 511.015768 248.87725 
z
" clip-path="url(#pbcd9ab00df)" style="fill: #c4c4c4"/>
    <path d="M 517.317302 262.97585 
L 511.015768 248.87725 
L 521.950469 243.387765 
L 528.260981 255.703779 
z
" clip-path="url(#pbcd9ab00df)" style="fill: #bababa"/>
    <path d="M 586.443123 295.692337 
L 580.010372 283.829352 
L 590.815002 281.567716 
L 597.240207 294.514229 
z
" clip-path="url(#pbcd9ab00df)" style="fill: #949494"/>
    <path d="M 569.158283 286.663531 
L 562.764433 274.045096 
L 573.605143 271.686977 
L 580.010372 283.829352 
z
" clip-path="url(#pbcd9ab00df)" style="fill: #9f9f9f"/>
    <path d="M 551.874974 277.63543 
L 545.513253 264.67962 
L 556.394846 261.17629 
L 562.764433 274.045096 
z
" clip-path="url(#pbcd9ab00df)" style="fill: #a9a9a9"/>
    <path d="M 534.593131 268.641143 
L 528.260981 255.703779 
L 539.173761 251.512066 
L 545.513253 264.67962 
z
" clip-path="url(#pbcd9ab00df)" style="fill: #b3b3b3"/>
    <path d="M 471.738185 247.611918 
L 465.566137 240.190949 
L 476.575231 235.546857 
L 482.769986 243.191867 
z
" clip-path="url(#pbcd9ab00df)" style="fill: #c8c8c8"/>
    <path d="M 506.345719 268.576657 
L 500.048047 253.596986 
L 511.015768 248.87725 
L 517.317302 262.97585 
z
" clip-path="url(#pbcd9ab00df)" style="fill: #b6b6b6"/>
    <path d="M 454.495899 242.716083 
L 465.566137 240.190949 
z
" clip-path="url(#pbcd9ab00df)" style="fill: #c8c8c8"/>
    <path d="M 644.875616 334.257634 
L 638.226363 326.464101 
L 648.81353 329.024107 
L 655.413237 339.134462 
z
" clip-path="url(#pbcd9ab00df)" style="fill: #696969"/>
    <path d="M 489.047681 258.362075 
L 482.769986 243.191867 
L 493.765054 238.340647 
L 500.048047 253.596986 
z
" clip-path="url(#pbcd9ab00df)" style="fill: #c1c1c1"/>
    <path d="M 523.637319 276.045181 
L 517.317302 262.97585 
L 528.260981 255.703779 
L 534.593131 268.641143 
z
" clip-path="url(#pbcd9ab00df)" style="fill: #afafaf"/>
    <path d="M 627.565839 324.468077 
L 620.983143 315.601796 
L 631.660399 316.408277 
L 638.226363 326.464101 
z
" clip-path="url(#pbcd9ab00df)" style="fill: #767676"/>
    <path d="M 610.237984 315.569914 
L 603.721913 305.221008 
L 614.468924 304.710172 
L 620.983143 315.601796 
z
" clip-path="url(#pbcd9ab00df)" style="fill: #818181"/>
    <path d="M 540.947194 281.49842 
L 534.593131 268.641143 
L 545.513253 264.67962 
L 551.874974 277.63543 
z
" clip-path="url(#pbcd9ab00df)" style="fill: #a8a8a8"/>
    <path d="M 558.260083 290.361927 
L 551.874974 277.63543 
L 562.764433 274.045096 
L 569.158283 286.663531 
z
" clip-path="url(#pbcd9ab00df)" style="fill: #9f9f9f"/>
    <path d="M 592.905053 307.253446 
L 586.443123 295.692337 
L 597.240207 294.514229 
L 603.721913 305.221008 
z
" clip-path="url(#pbcd9ab00df)" style="fill: #8b8b8b"/>
    <path d="M 575.577827 299.009276 
L 569.158283 286.663531 
L 580.010372 283.829352 
L 586.443123 295.692337 
z
" clip-path="url(#pbcd9ab00df)" style="fill: #959595"/>
    <path d="M 454.495899 242.716083 
z
" clip-path="url(#pbcd9ab00df)" style="fill: #c9c9c9"/>
    <path d="M 460.658925 250.951395 
L 454.495899 242.716083 
L 465.566137 240.190949 
L 471.738185 247.611918 
z
" clip-path="url(#pbcd9ab00df)" style="fill: #c7c7c7"/>
    <path d="M 495.343188 273.899338 
L 489.047681 258.362075 
L 500.048047 253.596986 
L 506.345719 268.576657 
z
" clip-path="url(#pbcd9ab00df)" style="fill: #b3b3b3"/>
    <path d="M 512.657143 282.307963 
L 506.345719 268.576657 
L 517.317302 262.97585 
L 523.637319 276.045181 
z
" clip-path="url(#pbcd9ab00df)" style="fill: #aaaaaa"/>
    <path d="M 478.015458 263.25718 
L 471.738185 247.611918 
L 482.769986 243.191867 
L 489.047681 258.362075 
z
" clip-path="url(#pbcd9ab00df)" style="fill: #bfbfbf"/>
    <path d="M 529.980041 287.849695 
L 523.637319 276.045181 
L 534.593131 268.641143 
L 540.947194 281.49842 
z
" clip-path="url(#pbcd9ab00df)" style="fill: #a5a5a5"/>
    <path d="M 547.324198 294.170623 
L 540.947194 281.49842 
L 551.874974 277.63543 
L 558.260083 290.361927 
z
" clip-path="url(#pbcd9ab00df)" style="fill: #9e9e9e"/>
    <path d="M 564.669841 302.841527 
L 558.260083 290.361927 
L 569.158283 286.663531 
L 575.577827 299.009276 
z
" clip-path="url(#pbcd9ab00df)" style="fill: #959595"/>
    <path d="M 582.024629 311.05997 
L 575.577827 299.009276 
L 586.443123 295.692337 
L 592.905053 307.253446 
z
" clip-path="url(#pbcd9ab00df)" style="fill: #8c8c8c"/>
    <path d="M 651.59548 340.688156 
L 644.875616 334.257634 
L 655.413237 339.134462 
L 662.139398 345.651326 
z
" clip-path="url(#pbcd9ab00df)" style="fill: #666666"/>
    <path d="M 501.64714 287.868234 
L 495.343188 273.899338 
L 506.345719 268.576657 
L 512.657143 282.307963 
z
" clip-path="url(#pbcd9ab00df)" style="fill: #a7a7a7"/>
    <path d="M 599.397954 318.490103 
L 592.905053 307.253446 
L 603.721913 305.221008 
L 610.237984 315.569914 
z
" clip-path="url(#pbcd9ab00df)" style="fill: #848484"/>
    <path d="M 484.301732 278.14778 
L 478.015458 263.25718 
L 489.047681 258.362075 
L 495.343188 273.899338 
z
" clip-path="url(#pbcd9ab00df)" style="fill: #b1b1b1"/>
    <path d="M 616.790101 325.564379 
L 610.237984 315.569914 
L 620.983143 315.601796 
L 627.565839 324.468077 
z
" clip-path="url(#pbcd9ab00df)" style="fill: #7b7b7b"/>
    <path d="M 634.19393 332.794018 
L 627.565839 324.468077 
L 638.226363 326.464101 
L 644.875616 334.257634 
z
" clip-path="url(#pbcd9ab00df)" style="fill: #717171"/>
    <path d="M 518.987169 294.943809 
L 512.657143 282.307963 
L 523.637319 276.045181 
L 529.980041 287.849695 
z
" clip-path="url(#pbcd9ab00df)" style="fill: #a0a0a0"/>
    <path d="M 466.928332 266.099618 
L 460.658925 250.951395 
L 471.738185 247.611918 
L 478.015458 263.25718 
z
" clip-path="url(#pbcd9ab00df)" style="fill: #bebebe"/>
    <path d="M 449.510596 252.179204 
L 454.495899 242.716083 
L 460.658925 250.951395 
z
" clip-path="url(#pbcd9ab00df)" style="fill: #c7c7c7"/>
    <path d="M 536.349345 298.819217 
L 529.980041 287.849695 
L 540.947194 281.49842 
L 547.324198 294.170623 
z
" clip-path="url(#pbcd9ab00df)" style="fill: #9c9c9c"/>
    <path d="M 553.725208 306.640048 
L 547.324198 294.170623 
L 558.260083 290.361927 
L 564.669841 302.841527 
z
" clip-path="url(#pbcd9ab00df)" style="fill: #949494"/>
    <path d="M 490.5909 290.878322 
L 484.301732 278.14778 
L 495.343188 273.899338 
L 501.64714 287.868234 
z
" clip-path="url(#pbcd9ab00df)" style="fill: #a5a5a5"/>
    <path d="M 571.10562 315.056618 
L 564.669841 302.841527 
L 575.577827 299.009276 
L 582.024629 311.05997 
z
" clip-path="url(#pbcd9ab00df)" style="fill: #8b8b8b"/>
    <path d="M 507.96553 300.328279 
L 501.64714 287.868234 
L 512.657143 282.307963 
L 518.987169 294.943809 
z
" clip-path="url(#pbcd9ab00df)" style="fill: #9c9c9c"/>
    <path d="M 588.500491 322.784813 
L 582.024629 311.05997 
L 592.905053 307.253446 
L 599.397954 318.490103 
z
" clip-path="url(#pbcd9ab00df)" style="fill: #838383"/>
    <path d="M 473.188668 278.666597 
L 466.928332 266.099618 
L 478.015458 263.25718 
L 484.301732 278.14778 
z
" clip-path="url(#pbcd9ab00df)" style="fill: #b1b1b1"/>
    <path d="M 605.924261 329.34793 
L 599.397954 318.490103 
L 610.237984 315.569914 
L 616.790101 325.564379 
z
" clip-path="url(#pbcd9ab00df)" style="fill: #7c7c7c"/>
    <path d="M 525.339986 306.635191 
L 518.987169 294.943809 
L 529.980041 287.849695 
L 536.349345 298.819217 
z
" clip-path="url(#pbcd9ab00df)" style="fill: #979797"/>
    <path d="M 623.3813 335.137279 
L 616.790101 325.564379 
L 627.565839 324.468077 
L 634.19393 332.794018 
z
" clip-path="url(#pbcd9ab00df)" style="fill: #757575"/>
    <path d="M 455.738258 264.200995 
L 449.510596 252.179204 
L 460.658925 250.951395 
L 466.928332 266.099618 
z
" clip-path="url(#pbcd9ab00df)" style="fill: #c0c0c0"/>
    <path d="M 640.868117 340.662563 
L 634.19393 332.794018 
L 644.875616 334.257634 
L 651.59548 340.688156 
z
" clip-path="url(#pbcd9ab00df)" style="fill: #6e6e6e"/>
    <path d="M 542.742576 310.649484 
L 536.349345 298.819217 
L 547.324198 294.170623 
L 553.725208 306.640048 
z
" clip-path="url(#pbcd9ab00df)" style="fill: #929292"/>
    <path d="M 658.374392 346.432525 
L 651.59548 340.688156 
L 662.139398 345.651326 
L 668.971617 349.837108 
z
" clip-path="url(#pbcd9ab00df)" style="fill: #656565"/>
    <path d="M 560.15139 318.888984 
L 553.725208 306.640048 
L 564.669841 302.841527 
L 571.10562 315.056618 
z
" clip-path="url(#pbcd9ab00df)" style="fill: #8a8a8a"/>
    <path d="M 496.893115 301.880974 
L 490.5909 290.878322 
L 501.64714 287.868234 
L 507.96553 300.328279 
z
" clip-path="url(#pbcd9ab00df)" style="fill: #9b9b9b"/>
    <path d="M 577.568898 326.989533 
L 571.10562 315.056618 
L 582.024629 311.05997 
L 588.500491 322.784813 
z
" clip-path="url(#pbcd9ab00df)" style="fill: #828282"/>
    <path d="M 514.304411 311.473166 
L 507.96553 300.328279 
L 518.987169 294.943809 
L 525.339986 306.635191 
z
" clip-path="url(#pbcd9ab00df)" style="fill: #939393"/>
    <path d="M 479.454526 289.278495 
L 473.188668 278.666597 
L 484.301732 278.14778 
L 490.5909 290.878322 
z
" clip-path="url(#pbcd9ab00df)" style="fill: #a7a7a7"/>
    <path d="M 595.01156 333.847108 
L 588.500491 322.784813 
L 599.397954 318.490103 
L 605.924261 329.34793 
z
" clip-path="url(#pbcd9ab00df)" style="fill: #7b7b7b"/>
    <path d="M 531.718949 317.648658 
L 525.339986 306.635191 
L 536.349345 298.819217 
L 542.742576 310.649484 
z
" clip-path="url(#pbcd9ab00df)" style="fill: #8f8f8f"/>
    <path d="M 461.969956 274.602503 
L 455.738258 264.200995 
L 466.928332 266.099618 
L 473.188668 278.666597 
z
" clip-path="url(#pbcd9ab00df)" style="fill: #b6b6b6"/>
    <path d="M 438.229413 248.204819 
L 449.510596 252.179204 
z
" clip-path="url(#pbcd9ab00df)" style="fill: #cccccc"/>
    <path d="M 612.499204 339.036839 
L 605.924261 329.34793 
L 616.790101 325.564379 
L 623.3813 335.137279 
z
" clip-path="url(#pbcd9ab00df)" style="fill: #767676"/>
    <path d="M 549.159408 322.813783 
L 542.742576 310.649484 
L 553.725208 306.640048 
L 560.15139 318.888984 
z
" clip-path="url(#pbcd9ab00df)" style="fill: #898989"/>
    <path d="M 566.604019 330.899692 
L 560.15139 318.888984 
L 571.10562 315.056618 
L 577.568898 326.989533 
z
" clip-path="url(#pbcd9ab00df)" style="fill: #818181"/>
    <path d="M 630.038527 343.065835 
L 623.3813 335.137279 
L 634.19393 332.794018 
L 640.868117 340.662563 
z
" clip-path="url(#pbcd9ab00df)" style="fill: #717171"/>
    <path d="M 503.219121 312.222825 
L 496.893115 301.880974 
L 507.96553 300.328279 
L 514.304411 311.473166 
z
" clip-path="url(#pbcd9ab00df)" style="fill: #929292"/>
    <path d="M 444.43945 259.20332 
L 438.229413 248.204819 
L 449.510596 252.179204 
L 455.738258 264.200995 
z
" clip-path="url(#pbcd9ab00df)" style="fill: #c7c7c7"/>
    <path d="M 584.064035 338.382358 
L 577.568898 326.989533 
L 588.500491 322.784813 
L 595.01156 333.847108 
z
" clip-path="url(#pbcd9ab00df)" style="fill: #7a7a7a"/>
    <path d="M 520.66943 322.159892 
L 514.304411 311.473166 
L 525.339986 306.635191 
L 531.718949 317.648658 
z
" clip-path="url(#pbcd9ab00df)" style="fill: #8b8b8b"/>
    <path d="M 485.744419 299.481164 
L 479.454526 289.278495 
L 490.5909 290.878322 
L 496.893115 301.880974 
z
" clip-path="url(#pbcd9ab00df)" style="fill: #9f9f9f"/>
    <path d="M 647.629417 346.442958 
L 640.868117 340.662563 
L 651.59548 340.688156 
L 658.374392 346.432525 
z
" clip-path="url(#pbcd9ab00df)" style="fill: #6d6d6d"/>
    <path d="M 601.570729 343.574974 
L 595.01156 333.847108 
L 605.924261 329.34793 
L 612.499204 339.036839 
z
" clip-path="url(#pbcd9ab00df)" style="fill: #757575"/>
    <path d="M 538.125238 328.595857 
L 531.718949 317.648658 
L 542.742576 310.649484 
L 549.159408 322.813783 
z
" clip-path="url(#pbcd9ab00df)" style="fill: #868686"/>
    <path d="M 665.26177 349.792743 
L 658.374392 346.432525 
L 668.971617 349.837108 
z
" clip-path="url(#pbcd9ab00df)" style="fill: #686868"/>
    <path d="M 468.23643 285.717469 
L 461.969956 274.602503 
L 473.188668 278.666597 
L 479.454526 289.278495 
z
" clip-path="url(#pbcd9ab00df)" style="fill: #aeaeae"/>
    <path d="M 555.602107 334.783993 
L 549.159408 322.813783 
L 560.15139 318.888984 
L 566.604019 330.899692 
z
" clip-path="url(#pbcd9ab00df)" style="fill: #808080"/>
    <path d="M 619.143229 346.708343 
L 612.499204 339.036839 
L 623.3813 335.137279 
L 630.038527 343.065835 
z
" clip-path="url(#pbcd9ab00df)" style="fill: #717171"/>
    <path d="M 573.084584 342.64326 
L 566.604019 330.899692 
L 577.568898 326.989533 
L 584.064035 338.382358 
z
" clip-path="url(#pbcd9ab00df)" style="fill: #787878"/>
    <path d="M 450.677709 270.395827 
L 444.43945 259.20332 
L 455.738258 264.200995 
L 461.969956 274.602503 
z
" clip-path="url(#pbcd9ab00df)" style="fill: #bfbfbf"/>
    <path d="M 509.573514 322.573631 
L 503.219121 312.222825 
L 514.304411 311.473166 
L 520.66943 322.159892 
z
" clip-path="url(#pbcd9ab00df)" style="fill: #8b8b8b"/>
    <path d="M 590.603571 348.44268 
L 584.064035 338.382358 
L 595.01156 333.847108 
L 601.570729 343.574974 
z
" clip-path="url(#pbcd9ab00df)" style="fill: #737373"/>
    <path d="M 527.062348 332.843372 
L 520.66943 322.159892 
L 531.718949 317.648658 
L 538.125238 328.595857 
z
" clip-path="url(#pbcd9ab00df)" style="fill: #838383"/>
    <path d="M 492.067985 310.555072 
L 485.744419 299.481164 
L 496.893115 301.880974 
L 503.219121 312.222825 
z
" clip-path="url(#pbcd9ab00df)" style="fill: #979797"/>
    <path d="M 426.791933 239.581028 
L 438.229413 248.204819 
z
" clip-path="url(#pbcd9ab00df)" style="fill: #d8d8d8"/>
    <path d="M 636.791705 348.289394 
L 630.038527 343.065835 
L 640.868117 340.662563 
L 647.629417 346.442958 
z
" clip-path="url(#pbcd9ab00df)" style="fill: #707070"/>
    <path d="M 544.559123 339.558439 
L 538.125238 328.595857 
L 549.159408 322.813783 
L 555.602107 334.783993 
z
" clip-path="url(#pbcd9ab00df)" style="fill: #7e7e7e"/>
    <path d="M 474.530713 297.03802 
L 468.23643 285.717469 
L 479.454526 289.278495 
L 485.744419 299.481164 
z
" clip-path="url(#pbcd9ab00df)" style="fill: #a6a6a6"/>
    <path d="M 608.194643 351.283424 
L 601.570729 343.574974 
L 612.499204 339.036839 
L 619.143229 346.708343 
z
" clip-path="url(#pbcd9ab00df)" style="fill: #707070"/>
    <path d="M 562.071853 346.542254 
L 555.602107 334.783993 
L 566.604019 330.899692 
L 573.084584 342.64326 
z
" clip-path="url(#pbcd9ab00df)" style="fill: #777777"/>
    <path d="M 433.013646 251.225006 
L 426.791933 239.581028 
L 438.229413 248.204819 
L 444.43945 259.20332 
z
" clip-path="url(#pbcd9ab00df)" style="fill: #d4d4d4"/>
    <path d="M 579.602872 353.329996 
L 573.084584 342.64326 
L 584.064035 338.382358 
L 590.603571 348.44268 
z
" clip-path="url(#pbcd9ab00df)" style="fill: #717171"/>
    <path d="M 654.512299 349.114389 
L 647.629417 346.442958 
L 658.374392 346.432525 
L 665.26177 349.792743 
z
" clip-path="url(#pbcd9ab00df)" style="fill: #6e6e6e"/>
    <path d="M 456.943932 281.789875 
L 450.677709 270.395827 
L 461.969956 274.602503 
L 468.23643 285.717469 
z
" clip-path="url(#pbcd9ab00df)" style="fill: #b7b7b7"/>
    <path d="M 515.957546 333.525737 
L 509.573514 322.573631 
L 520.66943 322.159892 
L 527.062348 332.843372 
z
" clip-path="url(#pbcd9ab00df)" style="fill: #848484"/>
    <path d="M 665.26177 349.792743 
z
" clip-path="url(#pbcd9ab00df)" style="fill: #6d6d6d"/>
    <path d="M 533.483455 343.567148 
L 527.062348 332.843372 
L 538.125238 328.595857 
L 544.559123 339.558439 
z
" clip-path="url(#pbcd9ab00df)" style="fill: #7c7c7c"/>
    <path d="M 498.419674 321.936692 
L 492.067985 310.555072 
L 503.219121 312.222825 
L 509.573514 322.573631 
z
" clip-path="url(#pbcd9ab00df)" style="fill: #909090"/>
    <path d="M 625.878109 351.678144 
L 619.143229 346.708343 
L 630.038527 343.065835 
L 636.791705 348.289394 
z
" clip-path="url(#pbcd9ab00df)" style="fill: #707070"/>
    <path d="M 426.791933 239.581028 
z
" clip-path="url(#pbcd9ab00df)" style="fill: #e0e0e0"/>
    <path d="M 597.202715 356.482318 
L 590.603571 348.44268 
L 601.570729 343.574974 
L 608.194643 351.283424 
z
" clip-path="url(#pbcd9ab00df)" style="fill: #6e6e6e"/>
    <path d="M 551.020639 350.587454 
L 544.559123 339.558439 
L 555.602107 334.783993 
L 562.071853 346.542254 
z
" clip-path="url(#pbcd9ab00df)" style="fill: #767676"/>
    <path d="M 480.852338 308.556382 
L 474.530713 297.03802 
L 485.744419 299.481164 
L 492.067985 310.555072 
z
" clip-path="url(#pbcd9ab00df)" style="fill: #9e9e9e"/>
    <path d="M 568.57117 357.926195 
L 562.071853 346.542254 
L 573.084584 342.64326 
L 579.602872 353.329996 
z
" clip-path="url(#pbcd9ab00df)" style="fill: #6f6f6f"/>
    <path d="M 439.297003 265.206727 
L 433.013646 251.225006 
L 444.43945 259.20332 
L 450.677709 270.395827 
z
" clip-path="url(#pbcd9ab00df)" style="fill: #cbcbcb"/>
    <path d="M 426.791933 239.581028 
L 433.013646 251.225006 
z
" clip-path="url(#pbcd9ab00df)" style="fill: #dcdcdc"/>
    <path d="M 654.512299 349.114389 
L 665.26177 349.792743 
z
" clip-path="url(#pbcd9ab00df)" style="fill: #707070"/>
    <path d="M 643.656217 350.629539 
L 636.791705 348.289394 
L 647.629417 346.442958 
L 654.512299 349.114389 
z
" clip-path="url(#pbcd9ab00df)" style="fill: #727272"/>
    <path d="M 463.237822 293.392961 
L 456.943932 281.789875 
L 468.23643 285.717469 
L 474.530713 297.03802 
z
" clip-path="url(#pbcd9ab00df)" style="fill: #afafaf"/>
    <path d="M 586.174852 361.995067 
L 579.602872 353.329996 
L 590.603571 348.44268 
L 597.202715 356.482318 
z
" clip-path="url(#pbcd9ab00df)" style="fill: #6b6b6b"/>
    <path d="M 614.902569 356.347759 
L 608.194643 351.283424 
L 619.143229 346.708343 
L 625.878109 351.678144 
z
" clip-path="url(#pbcd9ab00df)" style="fill: #6f6f6f"/>
    <path d="M 522.36931 344.902264 
L 515.957546 333.525737 
L 527.062348 332.843372 
L 533.483455 343.567148 
z
" clip-path="url(#pbcd9ab00df)" style="fill: #7c7c7c"/>
    <path d="M 539.932624 354.442975 
L 533.483455 343.567148 
L 544.559123 339.558439 
L 551.020639 350.587454 
z
" clip-path="url(#pbcd9ab00df)" style="fill: #747474"/>
    <path d="M 504.798287 333.512551 
L 498.419674 321.936692 
L 509.573514 322.573631 
L 515.957546 333.525737 
z
" clip-path="url(#pbcd9ab00df)" style="fill: #888888"/>
    <path d="M 557.507819 362.004896 
L 551.020639 350.587454 
L 562.071853 346.542254 
L 568.57117 357.926195 
z
" clip-path="url(#pbcd9ab00df)" style="fill: #6e6e6e"/>
    <path d="M 487.200978 320.280004 
L 480.852338 308.556382 
L 492.067985 310.555072 
L 498.419674 321.936692 
z
" clip-path="url(#pbcd9ab00df)" style="fill: #969696"/>
    <path d="M 445.572731 277.399898 
L 439.297003 265.206727 
L 450.677709 270.395827 
L 456.943932 281.789875 
z
" clip-path="url(#pbcd9ab00df)" style="fill: #c2c2c2"/>
    <path d="M 575.115848 367.513671 
L 568.57117 357.926195 
L 579.602872 353.329996 
L 586.174852 361.995067 
z
" clip-path="url(#pbcd9ab00df)" style="fill: #696969"/>
    <path d="M 603.877732 361.983449 
L 597.202715 356.482318 
L 608.194643 351.283424 
L 614.902569 356.347759 
z
" clip-path="url(#pbcd9ab00df)" style="fill: #6c6c6c"/>
    <path d="M 632.713475 354.022751 
L 625.878109 351.678144 
L 636.791705 348.289394 
L 643.656217 350.629539 
z
" clip-path="url(#pbcd9ab00df)" style="fill: #737373"/>
    <path d="M 469.55904 305.212544 
L 463.237822 293.392961 
L 474.530713 297.03802 
L 480.852338 308.556382 
z
" clip-path="url(#pbcd9ab00df)" style="fill: #a7a7a7"/>
    <path d="M 528.807797 356.46963 
L 522.36931 344.902264 
L 533.483455 343.567148 
L 539.932624 354.442975 
z
" clip-path="url(#pbcd9ab00df)" style="fill: #757575"/>
    <path d="M 546.408475 365.743401 
L 539.932624 354.442975 
L 551.020639 350.587454 
L 557.507819 362.004896 
z
" clip-path="url(#pbcd9ab00df)" style="fill: #6d6d6d"/>
    <path d="M 511.203469 345.29007 
L 504.798287 333.512551 
L 515.957546 333.525737 
L 522.36931 344.902264 
z
" clip-path="url(#pbcd9ab00df)" style="fill: #808080"/>
    <path d="M 592.813807 368.25901 
L 586.174852 361.995067 
L 597.202715 356.482318 
L 603.877732 361.983449 
z
" clip-path="url(#pbcd9ab00df)" style="fill: #696969"/>
    <path d="M 564.027738 372.749039 
L 557.507819 362.004896 
L 568.57117 357.926195 
L 575.115848 367.513671 
z
" clip-path="url(#pbcd9ab00df)" style="fill: #666666"/>
    <path d="M 493.576261 332.216297 
L 487.200978 320.280004 
L 498.419674 321.936692 
L 504.798287 333.512551 
z
" clip-path="url(#pbcd9ab00df)" style="fill: #8e8e8e"/>
    <path d="M 451.866369 289.191461 
L 445.572731 277.399898 
L 456.943932 281.789875 
L 463.237822 293.392961 
z
" clip-path="url(#pbcd9ab00df)" style="fill: #b9b9b9"/>
    <path d="M 427.582421 245.933296 
L 433.013646 251.225006 
L 439.297003 265.206727 
z
" clip-path="url(#pbcd9ab00df)" style="fill: #d9d9d9"/>
    <path d="M 650.616508 351.225758 
L 643.656217 350.629539 
L 654.512299 349.114389 
z
" clip-path="url(#pbcd9ab00df)" style="fill: #767676"/>
    <path d="M 621.701612 358.972561 
L 614.902569 356.347759 
L 625.878109 351.678144 
L 632.713475 354.022751 
z
" clip-path="url(#pbcd9ab00df)" style="fill: #717171"/>
    <path d="M 475.907203 317.256034 
L 469.55904 305.212544 
L 480.852338 308.556382 
L 487.200978 320.280004 
z
" clip-path="url(#pbcd9ab00df)" style="fill: #9e9e9e"/>
    <path d="M 581.718295 374.847495 
L 575.115848 367.513671 
L 586.174852 361.995067 
L 592.813807 368.25901 
z
" clip-path="url(#pbcd9ab00df)" style="fill: #656565"/>
    <path d="M 535.272622 368.235247 
L 528.807797 356.46963 
L 539.932624 354.442975 
L 546.408475 365.743401 
z
" clip-path="url(#pbcd9ab00df)" style="fill: #6d6d6d"/>
    <path d="M 517.634818 357.27663 
L 511.203469 345.29007 
L 522.36931 344.902264 
L 528.807797 356.46963 
z
" clip-path="url(#pbcd9ab00df)" style="fill: #787878"/>
    <path d="M 552.911642 377.131813 
L 546.408475 365.743401 
L 557.507819 362.004896 
L 564.027738 372.749039 
z
" clip-path="url(#pbcd9ab00df)" style="fill: #656565"/>
    <path d="M 610.635636 365.153573 
L 603.877732 361.983449 
L 614.902569 356.347759 
L 621.701612 358.972561 
z
" clip-path="url(#pbcd9ab00df)" style="fill: #6e6e6e"/>
    <path d="M 499.977773 344.37262 
L 493.576261 332.216297 
L 504.798287 333.512551 
L 511.203469 345.29007 
z
" clip-path="url(#pbcd9ab00df)" style="fill: #858585"/>
    <path d="M 458.187576 301.213835 
L 451.866369 289.191461 
L 463.237822 293.392961 
L 469.55904 305.212544 
z
" clip-path="url(#pbcd9ab00df)" style="fill: #b0b0b0"/>
    <path d="M 570.595938 381.421801 
L 564.027738 372.749039 
L 575.115848 367.513671 
L 581.718295 374.847495 
z
" clip-path="url(#pbcd9ab00df)" style="fill: #626262"/>
    <path d="M 433.896287 259.474412 
L 427.582421 245.933296 
L 439.297003 265.206727 
L 445.572731 277.399898 
z
" clip-path="url(#pbcd9ab00df)" style="fill: #d5d5d5"/>
    <path d="M 639.65501 353.986232 
L 632.713475 354.022751 
L 643.656217 350.629539 
L 650.616508 351.225758 
z
" clip-path="url(#pbcd9ab00df)" style="fill: #787878"/>
    <path d="M 482.281883 329.530788 
L 475.907203 317.256034 
L 487.200978 320.280004 
L 493.576261 332.216297 
z
" clip-path="url(#pbcd9ab00df)" style="fill: #959595"/>
    <path d="M 599.527915 372.23818 
L 592.813807 368.25901 
L 603.877732 361.983449 
L 610.635636 365.153573 
z
" clip-path="url(#pbcd9ab00df)" style="fill: #6a6a6a"/>
    <path d="M 541.763636 380.125636 
L 535.272622 368.235247 
L 546.408475 365.743401 
L 552.911642 377.131813 
z
" clip-path="url(#pbcd9ab00df)" style="fill: #656565"/>
    <path d="M 524.091892 369.479567 
L 517.634818 357.27663 
L 528.807797 356.46963 
L 535.272622 368.235247 
z
" clip-path="url(#pbcd9ab00df)" style="fill: #6f6f6f"/>
    <path d="M 559.450266 387.423708 
L 552.911642 377.131813 
L 564.027738 372.749039 
L 570.595938 381.421801 
z
" clip-path="url(#pbcd9ab00df)" style="fill: #5e5e5e"/>
    <path d="M 506.405055 356.756286 
L 499.977773 344.37262 
L 511.203469 345.29007 
L 517.634818 357.27663 
z
" clip-path="url(#pbcd9ab00df)" style="fill: #7c7c7c"/>
    <path d="M 650.616508 351.225758 
z
" clip-path="url(#pbcd9ab00df)" style="fill: #7c7c7c"/>
    <path d="M 464.535935 313.474319 
L 458.187576 301.213835 
L 469.55904 305.212544 
L 475.907203 317.256034 
z
" clip-path="url(#pbcd9ab00df)" style="fill: #a7a7a7"/>
    <path d="M 588.388108 379.897891 
L 581.718295 374.847495 
L 592.813807 368.25901 
L 599.527915 372.23818 
z
" clip-path="url(#pbcd9ab00df)" style="fill: #656565"/>
    <path d="M 440.265727 275.221595 
L 433.896287 259.474412 
L 445.572731 277.399898 
L 451.866369 289.191461 
z
" clip-path="url(#pbcd9ab00df)" style="fill: #cbcbcb"/>
    <path d="M 628.603181 359.10422 
L 621.701612 358.972561 
L 632.713475 354.022751 
L 639.65501 353.986232 
z
" clip-path="url(#pbcd9ab00df)" style="fill: #777777"/>
    <path d="M 488.68261 342.044106 
L 482.281883 329.530788 
L 493.576261 332.216297 
L 499.977773 344.37262 
z
" clip-path="url(#pbcd9ab00df)" style="fill: #8c8c8c"/>
    <path d="M 427.582421 245.933296 
z
" clip-path="url(#pbcd9ab00df)" style="fill: #eaeaea"/>
    <path d="M 639.65501 353.986232 
L 650.616508 351.225758 
z
" clip-path="url(#pbcd9ab00df)" style="fill: #7c7c7c"/>
    <path d="M 577.22311 387.804257 
L 570.595938 381.421801 
L 581.718295 374.847495 
L 588.388108 379.897891 
z
" clip-path="url(#pbcd9ab00df)" style="fill: #606060"/>
    <path d="M 530.574272 381.849486 
L 524.091892 369.479567 
L 535.272622 368.235247 
L 541.763636 380.125636 
z
" clip-path="url(#pbcd9ab00df)" style="fill: #666666"/>
    <path d="M 548.284189 391.399088 
L 541.763636 380.125636 
L 552.911642 377.131813 
L 559.450266 387.423708 
z
" clip-path="url(#pbcd9ab00df)" style="fill: #5d5d5d"/>
    <path d="M 512.857604 369.374543 
L 506.405055 356.756286 
L 517.634818 357.27663 
L 524.091892 369.479567 
z
" clip-path="url(#pbcd9ab00df)" style="fill: #737373"/>
    <path d="M 617.489333 365.822687 
L 610.635636 365.153573 
L 621.701612 358.972561 
L 628.603181 359.10422 
z
" clip-path="url(#pbcd9ab00df)" style="fill: #747474"/>
    <path d="M 470.910981 325.980151 
L 464.535935 313.474319 
L 475.907203 317.256034 
L 482.281883 329.530788 
z
" clip-path="url(#pbcd9ab00df)" style="fill: #9e9e9e"/>
    <path d="M 446.674622 292.587182 
L 440.265727 275.221595 
L 451.866369 289.191461 
L 458.187576 301.213835 
z
" clip-path="url(#pbcd9ab00df)" style="fill: #bfbfbf"/>
    <path d="M 566.038346 395.466123 
L 559.450266 387.423708 
L 570.595938 381.421801 
L 577.22311 387.804257 
z
" clip-path="url(#pbcd9ab00df)" style="fill: #5b5b5b"/>
    <path d="M 495.108868 354.80322 
L 488.68261 342.044106 
L 499.977773 344.37262 
L 506.405055 356.756286 
z
" clip-path="url(#pbcd9ab00df)" style="fill: #828282"/>
    <path d="M 606.330289 373.710904 
L 599.527915 372.23818 
L 610.635636 365.153573 
L 617.489333 365.822687 
z
" clip-path="url(#pbcd9ab00df)" style="fill: #6f6f6f"/>
    <path d="M 453.084057 309.107707 
L 446.674622 292.587182 
L 458.187576 301.213835 
L 464.535935 313.474319 
z
" clip-path="url(#pbcd9ab00df)" style="fill: #b2b2b2"/>
    <path d="M 537.083036 393.84059 
L 530.574272 381.849486 
L 541.763636 380.125636 
L 548.284189 391.399088 
z
" clip-path="url(#pbcd9ab00df)" style="fill: #5e5e5e"/>
    <path d="M 519.334843 382.202146 
L 512.857604 369.374543 
L 524.091892 369.479567 
L 530.574272 381.849486 
z
" clip-path="url(#pbcd9ab00df)" style="fill: #6a6a6a"/>
    <path d="M 477.312206 338.7385 
L 470.910981 325.980151 
L 482.281883 329.530788 
L 488.68261 342.044106 
z
" clip-path="url(#pbcd9ab00df)" style="fill: #949494"/>
    <path d="M 422.096193 242.065799 
L 427.582421 245.933296 
L 433.896287 259.474412 
z
" clip-path="url(#pbcd9ab00df)" style="fill: #ebebeb"/>
    <path d="M 554.840247 401.51357 
L 548.284189 391.399088 
L 559.450266 387.423708 
L 566.038346 395.466123 
z
" clip-path="url(#pbcd9ab00df)" style="fill: #575757"/>
    <path d="M 595.137913 382.438034 
L 588.388108 379.897891 
L 599.527915 372.23818 
L 606.330289 373.710904 
z
" clip-path="url(#pbcd9ab00df)" style="fill: #696969"/>
    <path d="M 635.555548 359.648793 
L 628.603181 359.10422 
L 639.65501 353.986232 
z
" clip-path="url(#pbcd9ab00df)" style="fill: #7d7d7d"/>
    <path d="M 501.560094 367.815291 
L 495.108868 354.80322 
L 506.405055 356.756286 
L 512.857604 369.374543 
z
" clip-path="url(#pbcd9ab00df)" style="fill: #797979"/>
    <path d="M 583.92129 391.673319 
L 577.22311 387.804257 
L 588.388108 379.897891 
L 595.137913 382.438034 
z
" clip-path="url(#pbcd9ab00df)" style="fill: #626262"/>
    <path d="M 459.487813 324.024463 
L 453.084057 309.107707 
L 464.535935 313.474319 
L 470.910981 325.980151 
z
" clip-path="url(#pbcd9ab00df)" style="fill: #a7a7a7"/>
    <path d="M 543.621309 405.099917 
L 537.083036 393.84059 
L 548.284189 391.399088 
L 554.840247 401.51357 
z
" clip-path="url(#pbcd9ab00df)" style="fill: #565656"/>
    <path d="M 483.739057 351.756459 
L 477.312206 338.7385 
L 488.68261 342.044106 
L 495.108868 354.80322 
z
" clip-path="url(#pbcd9ab00df)" style="fill: #8b8b8b"/>
    <path d="M 525.836419 394.889609 
L 519.334843 382.202146 
L 530.574272 381.849486 
L 537.083036 393.84059 
z
" clip-path="url(#pbcd9ab00df)" style="fill: #606060"/>
    <path d="M 572.687626 400.988247 
L 566.038346 395.466123 
L 577.22311 387.804257 
L 583.92129 391.673319 
z
" clip-path="url(#pbcd9ab00df)" style="fill: #5a5a5a"/>
    <path d="M 428.4617 256.466791 
L 422.096193 242.065799 
L 433.896287 259.474412 
L 440.265727 275.221595 
z
" clip-path="url(#pbcd9ab00df)" style="fill: #e6e6e6"/>
    <path d="M 624.428762 365.062332 
L 617.489333 365.822687 
L 628.603181 359.10422 
L 635.555548 359.648793 
z
" clip-path="url(#pbcd9ab00df)" style="fill: #7b7b7b"/>
    <path d="M 508.035657 381.079325 
L 501.560094 367.815291 
L 512.857604 369.374543 
L 519.334843 382.202146 
z
" clip-path="url(#pbcd9ab00df)" style="fill: #6f6f6f"/>
    <path d="M 561.445407 409.27003 
L 554.840247 401.51357 
L 566.038346 395.466123 
L 572.687626 400.988247 
z
" clip-path="url(#pbcd9ab00df)" style="fill: #545454"/>
    <path d="M 465.890314 337.201069 
L 459.487813 324.024463 
L 470.910981 325.980151 
L 477.312206 338.7385 
z
" clip-path="url(#pbcd9ab00df)" style="fill: #9c9c9c"/>
    <path d="M 434.870185 272.288382 
L 428.4617 256.466791 
L 440.265727 275.221595 
L 446.674622 292.587182 
z
" clip-path="url(#pbcd9ab00df)" style="fill: #d8d8d8"/>
    <path d="M 613.22917 372.816481 
L 606.330289 373.710904 
L 617.489333 365.822687 
L 624.428762 365.062332 
z
" clip-path="url(#pbcd9ab00df)" style="fill: #767676"/>
    <path d="M 490.190934 365.041039 
L 483.739057 351.756459 
L 495.108868 354.80322 
L 501.560094 367.815291 
z
" clip-path="url(#pbcd9ab00df)" style="fill: #808080"/>
    <path d="M 635.555548 359.648793 
z
" clip-path="url(#pbcd9ab00df)" style="fill: #818181"/>
    <path d="M 532.363687 407.126572 
L 525.836419 394.889609 
L 537.083036 393.84059 
L 543.621309 405.099917 
z
" clip-path="url(#pbcd9ab00df)" style="fill: #585858"/>
    <path d="M 550.193925 415.302607 
L 543.621309 405.099917 
L 554.840247 401.51357 
L 561.445407 409.27003 
z
" clip-path="url(#pbcd9ab00df)" style="fill: #515151"/>
    <path d="M 601.981206 382.274089 
L 595.137913 382.438034 
L 606.330289 373.710904 
L 613.22917 372.816481 
z
" clip-path="url(#pbcd9ab00df)" style="fill: #6f6f6f"/>
    <path d="M 422.096193 242.065799 
z
" clip-path="url(#pbcd9ab00df)" style="fill: #fafafa"/>
    <path d="M 514.534635 394.442875 
L 508.035657 381.079325 
L 519.334843 382.202146 
L 525.836419 394.889609 
z
" clip-path="url(#pbcd9ab00df)" style="fill: #656565"/>
    <path d="M 624.428762 365.062332 
L 635.555548 359.648793 
z
" clip-path="url(#pbcd9ab00df)" style="fill: #7f7f7f"/>
    <path d="M 441.311647 289.19685 
L 434.870185 272.288382 
L 446.674622 292.587182 
L 453.084057 309.107707 
z
" clip-path="url(#pbcd9ab00df)" style="fill: #c8c8c8"/>
    <path d="M 472.313128 350.145285 
L 465.890314 337.201069 
L 477.312206 338.7385 
L 483.739057 351.756459 
z
" clip-path="url(#pbcd9ab00df)" style="fill: #929292"/>
    <path d="M 590.703981 392.796194 
L 583.92129 391.673319 
L 595.137913 382.438034 
L 601.981206 382.274089 
z
" clip-path="url(#pbcd9ab00df)" style="fill: #676767"/>
    <path d="M 496.667192 378.59916 
L 490.190934 365.041039 
L 501.560094 367.815291 
L 508.035657 381.079325 
z
" clip-path="url(#pbcd9ab00df)" style="fill: #767676"/>
    <path d="M 579.410973 403.762538 
L 572.687626 400.988247 
L 583.92129 391.673319 
L 590.703981 392.796194 
z
" clip-path="url(#pbcd9ab00df)" style="fill: #5e5e5e"/>
    <path d="M 447.777599 306.859617 
L 441.311647 289.19685 
L 453.084057 309.107707 
L 459.487813 324.024463 
z
" clip-path="url(#pbcd9ab00df)" style="fill: #bababa"/>
    <path d="M 538.919484 418.645559 
L 532.363687 407.126572 
L 543.621309 405.099917 
L 550.193925 415.302607 
z
" clip-path="url(#pbcd9ab00df)" style="fill: #505050"/>
    <path d="M 521.056801 407.637795 
L 514.534635 394.442875 
L 525.836419 394.889609 
L 532.363687 407.126572 
z
" clip-path="url(#pbcd9ab00df)" style="fill: #5b5b5b"/>
    <path d="M 568.112714 414.273961 
L 561.445407 409.27003 
L 572.687626 400.988247 
L 579.410973 403.762538 
z
" clip-path="url(#pbcd9ab00df)" style="fill: #555555"/>
    <path d="M 478.761877 363.368903 
L 472.313128 350.145285 
L 483.739057 351.756459 
L 490.190934 365.041039 
z
" clip-path="url(#pbcd9ab00df)" style="fill: #888888"/>
    <path d="M 416.689848 246.143625 
L 422.096193 242.065799 
L 428.4617 256.466791 
z
" clip-path="url(#pbcd9ab00df)" style="fill: #f8f8f8"/>
    <path d="M 454.260953 324.935192 
L 447.777599 306.859617 
L 459.487813 324.024463 
L 465.890314 337.201069 
z
" clip-path="url(#pbcd9ab00df)" style="fill: #acacac"/>
    <path d="M 556.813736 423.14202 
L 550.193925 415.302607 
L 561.445407 409.27003 
L 568.112714 414.273961 
z
" clip-path="url(#pbcd9ab00df)" style="fill: #4e4e4e"/>
    <path d="M 503.167136 392.437649 
L 496.667192 378.59916 
L 508.035657 381.079325 
L 514.534635 394.442875 
z
" clip-path="url(#pbcd9ab00df)" style="fill: #6b6b6b"/>
    <path d="M 620.143911 374.450309 
L 613.22917 372.816481 
L 624.428762 365.062332 
z
" clip-path="url(#pbcd9ab00df)" style="fill: #7c7c7c"/>
    <path d="M 527.603292 420.396002 
L 521.056801 407.637795 
L 532.363687 407.126572 
L 538.919484 418.645559 
z
" clip-path="url(#pbcd9ab00df)" style="fill: #525252"/>
    <path d="M 460.753208 342.834506 
L 454.260953 324.935192 
L 465.890314 337.201069 
L 472.313128 350.145285 
z
" clip-path="url(#pbcd9ab00df)" style="fill: #9e9e9e"/>
    <path d="M 485.235891 376.878868 
L 478.761877 363.368903 
L 490.190934 365.041039 
L 496.667192 378.59916 
z
" clip-path="url(#pbcd9ab00df)" style="fill: #7d7d7d"/>
    <path d="M 545.508088 429.1742 
L 538.919484 418.645559 
L 550.193925 415.302607 
L 556.813736 423.14202 
z
" clip-path="url(#pbcd9ab00df)" style="fill: #4a4a4a"/>
    <path d="M 423.14376 263.708143 
L 416.689848 246.143625 
L 428.4617 256.466791 
L 434.870185 272.288382 
z
" clip-path="url(#pbcd9ab00df)" style="fill: #efefef"/>
    <path d="M 608.884824 382.128562 
L 601.981206 382.274089 
L 613.22917 372.816481 
L 620.143911 374.450309 
z
" clip-path="url(#pbcd9ab00df)" style="fill: #777777"/>
    <path d="M 509.689931 406.528284 
L 503.167136 392.437649 
L 514.534635 394.442875 
L 521.056801 407.637795 
z
" clip-path="url(#pbcd9ab00df)" style="fill: #616161"/>
    <path d="M 597.569461 392.107787 
L 590.703981 392.796194 
L 601.981206 382.274089 
L 608.884824 382.128562 
z
" clip-path="url(#pbcd9ab00df)" style="fill: #6f6f6f"/>
    <path d="M 429.615069 281.576218 
L 423.14376 263.708143 
L 434.870185 272.288382 
L 441.311647 289.19685 
z
" clip-path="url(#pbcd9ab00df)" style="fill: #e0e0e0"/>
    <path d="M 467.250832 360.163507 
L 460.753208 342.834506 
L 472.313128 350.145285 
L 478.761877 363.368903 
z
" clip-path="url(#pbcd9ab00df)" style="fill: #919191"/>
    <path d="M 586.220429 403.744314 
L 579.410973 403.762538 
L 590.703981 392.796194 
L 597.569461 392.107787 
z
" clip-path="url(#pbcd9ab00df)" style="fill: #656565"/>
    <path d="M 491.734456 390.682023 
L 485.235891 376.878868 
L 496.667192 378.59916 
L 503.167136 392.437649 
z
" clip-path="url(#pbcd9ab00df)" style="fill: #737373"/>
    <path d="M 574.855854 416.29392 
L 568.112714 414.273961 
L 579.410973 403.762538 
L 586.220429 403.744314 
z
" clip-path="url(#pbcd9ab00df)" style="fill: #5a5a5a"/>
    <path d="M 620.143911 374.450309 
z
" clip-path="url(#pbcd9ab00df)" style="fill: #7d7d7d"/>
    <path d="M 416.689848 246.143625 
z
" clip-path="url(#pbcd9ab00df)" style="fill: #ffffff"/>
    <path d="M 534.176643 432.449833 
L 527.603292 420.396002 
L 538.919484 418.645559 
L 545.508088 429.1742 
z
" clip-path="url(#pbcd9ab00df)" style="fill: #4a4a4a"/>
    <path d="M 563.495246 427.99726 
L 556.813736 423.14202 
L 568.112714 414.273961 
L 574.855854 416.29392 
z
" clip-path="url(#pbcd9ab00df)" style="fill: #4f4f4f"/>
    <path d="M 436.095811 299.327439 
L 429.615069 281.576218 
L 441.311647 289.19685 
L 447.777599 306.859617 
z
" clip-path="url(#pbcd9ab00df)" style="fill: #cfcfcf"/>
    <path d="M 516.234353 420.507982 
L 509.689931 406.528284 
L 521.056801 407.637795 
L 527.603292 420.396002 
z
" clip-path="url(#pbcd9ab00df)" style="fill: #565656"/>
    <path d="M 608.884824 382.128562 
L 620.143911 374.450309 
z
" clip-path="url(#pbcd9ab00df)" style="fill: #7a7a7a"/>
    <path d="M 473.75346 376.654245 
L 467.250832 360.163507 
L 478.761877 363.368903 
L 485.235891 376.878868 
z
" clip-path="url(#pbcd9ab00df)" style="fill: #848484"/>
    <path d="M 552.140592 437.467678 
L 545.508088 429.1742 
L 556.813736 423.14202 
L 563.495246 427.99726 
z
" clip-path="url(#pbcd9ab00df)" style="fill: #484848"/>
    <path d="M 442.586503 316.958727 
L 436.095811 299.327439 
L 447.777599 306.859617 
L 454.260953 324.935192 
z
" clip-path="url(#pbcd9ab00df)" style="fill: #bfbfbf"/>
    <path d="M 498.256805 404.785099 
L 491.734456 390.682023 
L 503.167136 392.437649 
L 509.689931 406.528284 
z
" clip-path="url(#pbcd9ab00df)" style="fill: #686868"/>
    <path d="M 411.420135 259.734132 
L 416.689848 246.143625 
L 423.14376 263.708143 
z
" clip-path="url(#pbcd9ab00df)" style="fill: #f8f8f8"/>
    <path d="M 449.087685 334.467025 
L 442.586503 316.958727 
L 454.260953 324.935192 
L 460.753208 342.834506 
z
" clip-path="url(#pbcd9ab00df)" style="fill: #afafaf"/>
    <path d="M 522.801042 434.064167 
L 516.234353 420.507982 
L 527.603292 420.396002 
L 534.176643 432.449833 
z
" clip-path="url(#pbcd9ab00df)" style="fill: #4c4c4c"/>
    <path d="M 480.262104 392.040252 
L 473.75346 376.654245 
L 485.235891 376.878868 
L 491.734456 390.682023 
z
" clip-path="url(#pbcd9ab00df)" style="fill: #787878"/>
    <path d="M 540.780815 443.531429 
L 534.176643 432.449833 
L 545.508088 429.1742 
L 552.140592 437.467678 
z
" clip-path="url(#pbcd9ab00df)" style="fill: #444444"/>
    <path d="M 604.443061 394.911769 
L 597.569461 392.107787 
L 608.884824 382.128562 
z
" clip-path="url(#pbcd9ab00df)" style="fill: #737373"/>
    <path d="M 417.91494 278.318179 
L 411.420135 259.734132 
L 423.14376 263.708143 
L 429.615069 281.576218 
z
" clip-path="url(#pbcd9ab00df)" style="fill: #ebebeb"/>
    <path d="M 504.802125 419.194706 
L 498.256805 404.785099 
L 509.689931 406.528284 
L 516.234353 420.507982 
z
" clip-path="url(#pbcd9ab00df)" style="fill: #5c5c5c"/>
    <path d="M 455.599924 351.849301 
L 449.087685 334.467025 
L 460.753208 342.834506 
L 467.250832 360.163507 
z
" clip-path="url(#pbcd9ab00df)" style="fill: #9f9f9f"/>
    <path d="M 593.080737 404.447808 
L 586.220429 403.744314 
L 597.569461 392.107787 
L 604.443061 394.911769 
z
" clip-path="url(#pbcd9ab00df)" style="fill: #6c6c6c"/>
    <path d="M 424.419701 296.90903 
L 417.91494 278.318179 
L 429.615069 281.576218 
L 436.095811 299.327439 
z
" clip-path="url(#pbcd9ab00df)" style="fill: #dbdbdb"/>
    <path d="M 486.77997 406.166576 
L 480.262104 392.040252 
L 491.734456 390.682023 
L 498.256805 404.785099 
z
" clip-path="url(#pbcd9ab00df)" style="fill: #6c6c6c"/>
    <path d="M 581.677152 416.238048 
L 574.855854 416.29392 
L 586.220429 403.744314 
L 593.080737 404.447808 
z
" clip-path="url(#pbcd9ab00df)" style="fill: #616161"/>
    <path d="M 411.420135 259.734132 
z
" clip-path="url(#pbcd9ab00df)" style="fill: #f9f9f9"/>
    <path d="M 529.392217 446.92918 
L 522.801042 434.064167 
L 534.176643 432.449833 
L 540.780815 443.531429 
z
" clip-path="url(#pbcd9ab00df)" style="fill: #444444"/>
    <path d="M 570.252932 429.63403 
L 563.495246 427.99726 
L 574.855854 416.29392 
L 581.677152 416.238048 
z
" clip-path="url(#pbcd9ab00df)" style="fill: #555555"/>
    <path d="M 462.123813 369.102541 
L 455.599924 351.849301 
L 467.250832 360.163507 
L 473.75346 376.654245 
z
" clip-path="url(#pbcd9ab00df)" style="fill: #8f8f8f"/>
    <path d="M 558.832918 442.546506 
L 552.140592 437.467678 
L 563.495246 427.99726 
L 570.252932 429.63403 
z
" clip-path="url(#pbcd9ab00df)" style="fill: #494949"/>
    <path d="M 430.932748 315.406872 
L 424.419701 296.90903 
L 436.095811 299.327439 
L 442.586503 316.958727 
z
" clip-path="url(#pbcd9ab00df)" style="fill: #cacaca"/>
    <path d="M 511.369553 433.917326 
L 504.802125 419.194706 
L 516.234353 420.507982 
L 522.801042 434.064167 
z
" clip-path="url(#pbcd9ab00df)" style="fill: #515151"/>
    <path d="M 547.42461 452.634666 
L 540.780815 443.531429 
L 552.140592 437.467678 
L 558.832918 442.546506 
z
" clip-path="url(#pbcd9ab00df)" style="fill: #414141"/>
    <path d="M 604.443061 394.911769 
z
" clip-path="url(#pbcd9ab00df)" style="fill: #737373"/>
    <path d="M 406.235288 279.228355 
L 411.420135 259.734132 
L 417.91494 278.318179 
z
" clip-path="url(#pbcd9ab00df)" style="fill: #eeeeee"/>
    <path d="M 468.659969 386.223753 
L 462.123813 369.102541 
L 473.75346 376.654245 
L 480.262104 392.040252 
z
" clip-path="url(#pbcd9ab00df)" style="fill: #818181"/>
    <path d="M 437.453659 333.758622 
L 430.932748 315.406872 
L 442.586503 316.958727 
L 449.087685 334.467025 
z
" clip-path="url(#pbcd9ab00df)" style="fill: #b9b9b9"/>
    <path d="M 493.319189 420.222739 
L 486.77997 406.166576 
L 498.256805 404.785099 
L 504.802125 419.194706 
z
" clip-path="url(#pbcd9ab00df)" style="fill: #616161"/>
    <path d="M 593.080737 404.447808 
L 604.443061 394.911769 
z
" clip-path="url(#pbcd9ab00df)" style="fill: #6e6e6e"/>
    <path d="M 412.749659 298.044369 
L 406.235288 279.228355 
L 417.91494 278.318179 
L 424.419701 296.90903 
z
" clip-path="url(#pbcd9ab00df)" style="fill: #e0e0e0"/>
    <path d="M 517.957685 448.549069 
L 511.369553 433.917326 
L 522.801042 434.064167 
L 529.392217 446.92918 
z
" clip-path="url(#pbcd9ab00df)" style="fill: #464646"/>
    <path d="M 536.011529 458.83551 
L 529.392217 446.92918 
L 540.780815 443.531429 
L 547.42461 452.634666 
z
" clip-path="url(#pbcd9ab00df)" style="fill: #3c3c3c"/>
    <path d="M 443.982929 351.953391 
L 437.453659 333.758622 
L 449.087685 334.467025 
L 455.599924 351.849301 
z
" clip-path="url(#pbcd9ab00df)" style="fill: #a9a9a9"/>
    <path d="M 475.209038 403.209961 
L 468.659969 386.223753 
L 480.262104 392.040252 
L 486.77997 406.166576 
z
" clip-path="url(#pbcd9ab00df)" style="fill: #737373"/>
    <path d="M 406.235288 279.228355 
z
" clip-path="url(#pbcd9ab00df)" style="fill: #eaeaea"/>
    <path d="M 419.272342 316.802007 
L 412.749659 298.044369 
L 424.419701 296.90903 
L 430.932748 315.406872 
z
" clip-path="url(#pbcd9ab00df)" style="fill: #cfcfcf"/>
    <path d="M 499.882198 434.605272 
L 493.319189 420.222739 
L 504.802125 419.194706 
L 511.369553 433.917326 
z
" clip-path="url(#pbcd9ab00df)" style="fill: #565656"/>
    <path d="M 588.508227 420.271592 
L 581.677152 416.238048 
L 593.080737 404.447808 
z
" clip-path="url(#pbcd9ab00df)" style="fill: #636363"/>
    <path d="M 450.521289 369.992546 
L 443.982929 351.953391 
L 455.599924 351.849301 
L 462.123813 369.102541 
z
" clip-path="url(#pbcd9ab00df)" style="fill: #999999"/>
    <path d="M 401.230892 307.929642 
L 406.235288 279.228355 
L 412.749659 298.044369 
z
" clip-path="url(#pbcd9ab00df)" style="fill: #dbdbdb"/>
    <path d="M 425.804782 335.560405 
L 419.272342 316.802007 
L 430.932748 315.406872 
L 437.453659 333.758622 
z
" clip-path="url(#pbcd9ab00df)" style="fill: #bdbdbd"/>
    <path d="M 481.77169 420.058206 
L 475.209038 403.209961 
L 486.77997 406.166576 
L 493.319189 420.222739 
z
" clip-path="url(#pbcd9ab00df)" style="fill: #666666"/>
    <path d="M 577.067234 431.247012 
L 570.252932 429.63403 
L 581.677152 416.238048 
L 588.508227 420.271592 
z
" clip-path="url(#pbcd9ab00df)" style="fill: #5a5a5a"/>
    <path d="M 524.56721 462.502059 
L 517.957685 448.549069 
L 529.392217 446.92918 
L 536.011529 458.83551 
z
" clip-path="url(#pbcd9ab00df)" style="fill: #3c3c3c"/>
    <path d="M 565.598269 444.425305 
L 558.832918 442.546506 
L 570.252932 429.63403 
L 577.067234 431.247012 
z
" clip-path="url(#pbcd9ab00df)" style="fill: #4e4e4e"/>
    <path d="M 457.069134 387.85098 
L 450.521289 369.992546 
L 462.123813 369.102541 
L 468.659969 386.223753 
z
" clip-path="url(#pbcd9ab00df)" style="fill: #898989"/>
    <path d="M 391.56113 380.443083 
z
" clip-path="url(#pbcd9ab00df)" style="fill: #878787"/>
    <path d="M 554.124832 458.311678 
L 547.42461 452.634666 
L 558.832918 442.546506 
L 565.598269 444.425305 
z
" clip-path="url(#pbcd9ab00df)" style="fill: #414141"/>
    <path d="M 401.230892 307.929642 
z
" clip-path="url(#pbcd9ab00df)" style="fill: #d0d0d0"/>
    <path d="M 407.679935 323.625122 
L 401.230892 307.929642 
L 412.749659 298.044369 
L 419.272342 316.802007 
z
" clip-path="url(#pbcd9ab00df)" style="fill: #cccccc"/>
    <path d="M 396.363313 342.860601 
z
" clip-path="url(#pbcd9ab00df)" style="fill: #adadad"/>
    <path d="M 432.347991 354.369519 
L 425.804782 335.560405 
L 437.453659 333.758622 
L 443.982929 351.953391 
z
" clip-path="url(#pbcd9ab00df)" style="fill: #acacac"/>
    <path d="M 506.468069 449.320625 
L 499.882198 434.605272 
L 511.369553 433.917326 
L 517.957685 448.549069 
z
" clip-path="url(#pbcd9ab00df)" style="fill: #4a4a4a"/>
    <path d="M 396.363313 342.860601 
L 401.230892 307.929642 
L 407.679935 323.625122 
z
" clip-path="url(#pbcd9ab00df)" style="fill: #c0c0c0"/>
    <path d="M 542.665861 469.031875 
L 536.011529 458.83551 
L 547.42461 452.634666 
L 554.124832 458.311678 
z
" clip-path="url(#pbcd9ab00df)" style="fill: #383838"/>
    <path d="M 391.56113 380.443083 
L 397.98982 395.966179 
z
" clip-path="url(#pbcd9ab00df)" style="fill: #808080"/>
    <path d="M 391.56113 380.443083 
L 396.363313 342.860601 
L 402.768335 356.949507 
z
" clip-path="url(#pbcd9ab00df)" style="fill: #9c9c9c"/>
    <path d="M 463.627003 405.504361 
L 457.069134 387.85098 
L 468.659969 386.223753 
L 475.209038 403.209961 
z
" clip-path="url(#pbcd9ab00df)" style="fill: #797979"/>
    <path d="M 488.348626 436.765538 
L 481.77169 420.058206 
L 493.319189 420.222739 
L 499.882198 434.605272 
z
" clip-path="url(#pbcd9ab00df)" style="fill: #595959"/>
    <path d="M 438.901637 373.212472 
L 432.347991 354.369519 
L 443.982929 351.953391 
L 450.521289 369.992546 
z
" clip-path="url(#pbcd9ab00df)" style="fill: #9b9b9b"/>
    <path d="M 414.21748 342.711183 
L 407.679935 323.625122 
L 419.272342 316.802007 
L 425.804782 335.560405 
z
" clip-path="url(#pbcd9ab00df)" style="fill: #bcbcbc"/>
    <path d="M 402.768335 356.949507 
L 396.363313 342.860601 
L 407.679935 323.625122 
L 414.21748 342.711183 
z
" clip-path="url(#pbcd9ab00df)" style="fill: #b0b0b0"/>
    <path d="M 588.508227 420.271592 
z
" clip-path="url(#pbcd9ab00df)" style="fill: #616161"/>
    <path d="M 397.98982 395.966179 
L 391.56113 380.443083 
L 402.768335 356.949507 
L 409.28685 375.215605 
z
" clip-path="url(#pbcd9ab00df)" style="fill: #8d8d8d"/>
    <path d="M 577.067234 431.247012 
L 588.508227 420.271592 
z
" clip-path="url(#pbcd9ab00df)" style="fill: #5c5c5c"/>
    <path d="M 531.201457 475.509471 
L 524.56721 462.502059 
L 536.011529 458.83551 
L 542.665861 469.031875 
z
" clip-path="url(#pbcd9ab00df)" style="fill: #343434"/>
    <path d="M 513.075821 464.375096 
L 506.468069 449.320625 
L 517.957685 448.549069 
L 524.56721 462.502059 
z
" clip-path="url(#pbcd9ab00df)" style="fill: #3e3e3e"/>
    <path d="M 420.756715 361.425181 
L 414.21748 342.711183 
L 425.804782 335.560405 
L 432.347991 354.369519 
z
" clip-path="url(#pbcd9ab00df)" style="fill: #aaaaaa"/>
    <path d="M 397.98982 395.966179 
L 404.473722 413.111308 
z
" clip-path="url(#pbcd9ab00df)" style="fill: #727272"/>
    <path d="M 445.464848 392.031379 
L 438.901637 373.212472 
L 450.521289 369.992546 
L 457.069134 387.85098 
z
" clip-path="url(#pbcd9ab00df)" style="fill: #8a8a8a"/>
    <path d="M 470.195765 422.94675 
L 463.627003 405.504361 
L 475.209038 403.209961 
L 481.77169 420.058206 
z
" clip-path="url(#pbcd9ab00df)" style="fill: #6a6a6a"/>
    <path d="M 409.28685 375.215605 
L 402.768335 356.949507 
L 414.21748 342.711183 
L 420.756715 361.425181 
z
" clip-path="url(#pbcd9ab00df)" style="fill: #a1a1a1"/>
    <path d="M 494.939763 453.187437 
L 488.348626 436.765538 
L 499.882198 434.605272 
L 506.468069 449.320625 
z
" clip-path="url(#pbcd9ab00df)" style="fill: #4c4c4c"/>
    <path d="M 404.473722 413.111308 
L 397.98982 395.966179 
L 409.28685 375.215605 
L 415.809177 393.134336 
z
" clip-path="url(#pbcd9ab00df)" style="fill: #7d7d7d"/>
    <path d="M 427.306748 380.17568 
L 420.756715 361.425181 
L 432.347991 354.369519 
L 438.901637 373.212472 
z
" clip-path="url(#pbcd9ab00df)" style="fill: #999999"/>
    <path d="M 452.037199 410.780254 
L 445.464848 392.031379 
L 457.069134 387.85098 
L 463.627003 405.504361 
z
" clip-path="url(#pbcd9ab00df)" style="fill: #797979"/>
    <path d="M 572.387276 449.739635 
L 565.598269 444.425305 
L 577.067234 431.247012 
z
" clip-path="url(#pbcd9ab00df)" style="fill: #4f4f4f"/>
    <path d="M 404.473722 413.111308 
L 410.969868 430.186791 
z
" clip-path="url(#pbcd9ab00df)" style="fill: #636363"/>
    <path d="M 476.776417 440.181004 
L 470.195765 422.94675 
L 481.77169 420.058206 
L 488.348626 436.765538 
z
" clip-path="url(#pbcd9ab00df)" style="fill: #5b5b5b"/>
    <path d="M 415.809177 393.134336 
L 409.28685 375.215605 
L 420.756715 361.425181 
L 427.306748 380.17568 
z
" clip-path="url(#pbcd9ab00df)" style="fill: #909090"/>
    <path d="M 433.867733 398.971154 
L 427.306748 380.17568 
L 438.901637 373.212472 
L 445.464848 392.031379 
z
" clip-path="url(#pbcd9ab00df)" style="fill: #878787"/>
    <path d="M 519.704263 479.587629 
L 513.075821 464.375096 
L 524.56721 462.502059 
L 531.201457 475.509471 
z
" clip-path="url(#pbcd9ab00df)" style="fill: #333333"/>
    <path d="M 560.88723 461.730776 
L 554.124832 458.311678 
L 565.598269 444.425305 
L 572.387276 449.739635 
z
" clip-path="url(#pbcd9ab00df)" style="fill: #444444"/>
    <path d="M 410.969868 430.186791 
L 404.473722 413.111308 
L 415.809177 393.134336 
L 422.352942 411.524803 
z
" clip-path="url(#pbcd9ab00df)" style="fill: #6e6e6e"/>
    <path d="M 549.37156 475.682946 
L 542.665861 469.031875 
L 554.124832 458.311678 
L 560.88723 461.730776 
z
" clip-path="url(#pbcd9ab00df)" style="fill: #383838"/>
    <path d="M 458.618528 429.415404 
L 452.037199 410.780254 
L 463.627003 405.504361 
L 470.195765 422.94675 
z
" clip-path="url(#pbcd9ab00df)" style="fill: #696969"/>
    <path d="M 501.544995 469.004114 
L 494.939763 453.187437 
L 506.468069 449.320625 
L 513.075821 464.375096 
z
" clip-path="url(#pbcd9ab00df)" style="fill: #3f3f3f"/>
    <path d="M 410.969868 430.186791 
L 417.493365 447.894228 
z
" clip-path="url(#pbcd9ab00df)" style="fill: #545454"/>
    <path d="M 422.352942 411.524803 
L 415.809177 393.134336 
L 427.306748 380.17568 
L 433.867733 398.971154 
z
" clip-path="url(#pbcd9ab00df)" style="fill: #7f7f7f"/>
    <path d="M 537.865915 487.047956 
L 531.201457 475.509471 
L 542.665861 469.031875 
L 549.37156 475.682946 
z
" clip-path="url(#pbcd9ab00df)" style="fill: #2e2e2e"/>
    <path d="M 440.440389 417.857472 
L 433.867733 398.971154 
L 445.464848 392.031379 
L 452.037199 410.780254 
z
" clip-path="url(#pbcd9ab00df)" style="fill: #767676"/>
    <path d="M 483.369937 457.207178 
L 476.776417 440.181004 
L 488.348626 436.765538 
L 494.939763 453.187437 
z
" clip-path="url(#pbcd9ab00df)" style="fill: #4c4c4c"/>
    <path d="M 417.493365 447.894228 
L 410.969868 430.186791 
L 422.352942 411.524803 
L 428.912323 430.157311 
z
" clip-path="url(#pbcd9ab00df)" style="fill: #5d5d5d"/>
    <path d="M 465.208902 447.893625 
L 458.618528 429.415404 
L 470.195765 422.94675 
L 476.776417 440.181004 
z
" clip-path="url(#pbcd9ab00df)" style="fill: #595959"/>
    <path d="M 428.912323 430.157311 
L 422.352942 411.524803 
L 433.867733 398.971154 
L 440.440389 417.857472 
z
" clip-path="url(#pbcd9ab00df)" style="fill: #6e6e6e"/>
    <path d="M 417.493365 447.894228 
L 424.043883 466.323999 
z
" clip-path="url(#pbcd9ab00df)" style="fill: #434343"/>
    <path d="M 447.025541 436.902261 
L 440.440389 417.857472 
L 452.037199 410.780254 
L 458.618528 429.415404 
z
" clip-path="url(#pbcd9ab00df)" style="fill: #656565"/>
    <path d="M 572.387276 449.739635 
z
" clip-path="url(#pbcd9ab00df)" style="fill: #4b4b4b"/>
    <path d="M 560.88723 461.730776 
L 572.387276 449.739635 
z
" clip-path="url(#pbcd9ab00df)" style="fill: #454545"/>
    <path d="M 526.353494 493.971201 
L 519.704263 479.587629 
L 531.201457 475.509471 
L 537.865915 487.047956 
z
" clip-path="url(#pbcd9ab00df)" style="fill: #292929"/>
    <path d="M 508.166347 484.039029 
L 501.544995 469.004114 
L 513.075821 464.375096 
L 519.704263 479.587629 
z
" clip-path="url(#pbcd9ab00df)" style="fill: #333333"/>
    <path d="M 424.043883 466.323999 
L 417.493365 447.894228 
L 428.912323 430.157311 
L 435.488823 449.160633 
z
" clip-path="url(#pbcd9ab00df)" style="fill: #4d4d4d"/>
    <path d="M 489.977319 474.025287 
L 483.369937 457.207178 
L 494.939763 453.187437 
L 501.544995 469.004114 
z
" clip-path="url(#pbcd9ab00df)" style="fill: #3e3e3e"/>
    <path d="M 435.488823 449.160633 
L 428.912323 430.157311 
L 440.440389 417.857472 
L 447.025541 436.902261 
z
" clip-path="url(#pbcd9ab00df)" style="fill: #5c5c5c"/>
    <path d="M 471.808621 466.172172 
L 465.208902 447.893625 
L 476.776417 440.181004 
L 483.369937 457.207178 
z
" clip-path="url(#pbcd9ab00df)" style="fill: #494949"/>
    <path d="M 424.043883 466.323999 
L 430.62041 485.555444 
z
" clip-path="url(#pbcd9ab00df)" style="fill: #323232"/>
    <path d="M 453.622147 456.063027 
L 447.025541 436.902261 
L 458.618528 429.415404 
L 465.208902 447.893625 
z
" clip-path="url(#pbcd9ab00df)" style="fill: #535353"/>
    <path d="M 430.62041 485.555444 
L 424.043883 466.323999 
L 435.488823 449.160633 
L 442.08405 468.710181 
z
" clip-path="url(#pbcd9ab00df)" style="fill: #3b3b3b"/>
    <path d="M 430.62041 485.555444 
z
" clip-path="url(#pbcd9ab00df)" style="fill: #292929"/>
    <path d="M 556.119797 482.510135 
L 549.37156 475.682946 
L 560.88723 461.730776 
z
" clip-path="url(#pbcd9ab00df)" style="fill: #363636"/>
    <path d="M 442.08405 468.710181 
L 435.488823 449.160633 
L 447.025541 436.902261 
L 453.622147 456.063027 
z
" clip-path="url(#pbcd9ab00df)" style="fill: #4a4a4a"/>
    <path d="M 460.22935 475.295525 
L 453.622147 456.063027 
L 465.208902 447.893625 
L 471.808621 466.172172 
z
" clip-path="url(#pbcd9ab00df)" style="fill: #424242"/>
    <path d="M 430.62041 485.555444 
L 442.08405 468.710181 
L 448.705786 489.455518 
z
" clip-path="url(#pbcd9ab00df)" style="fill: #2e2e2e"/>
    <path d="M 478.418242 484.211188 
L 471.808621 466.172172 
L 483.369937 457.207178 
L 489.977319 474.025287 
z
" clip-path="url(#pbcd9ab00df)" style="fill: #393939"/>
    <path d="M 514.808729 499.157705 
L 508.166347 484.039029 
L 519.704263 479.587629 
L 526.353494 493.971201 
z
" clip-path="url(#pbcd9ab00df)" style="fill: #272727"/>
    <path d="M 496.599577 490.635309 
L 489.977319 474.025287 
L 501.544995 469.004114 
L 508.166347 484.039029 
z
" clip-path="url(#pbcd9ab00df)" style="fill: #313131"/>
    <path d="M 544.575025 495.093222 
L 537.865915 487.047956 
L 549.37156 475.682946 
L 556.119797 482.510135 
z
" clip-path="url(#pbcd9ab00df)" style="fill: #2b2b2b"/>
    <path d="M 448.705786 489.455518 
L 442.08405 468.710181 
L 453.622147 456.063027 
L 460.22935 475.295525 
z
" clip-path="url(#pbcd9ab00df)" style="fill: #383838"/>
    <path d="M 466.846517 494.55603 
L 460.22935 475.295525 
L 471.808621 466.172172 
L 478.418242 484.211188 
z
" clip-path="url(#pbcd9ab00df)" style="fill: #313131"/>
    <path d="M 533.027901 507.069234 
L 526.353494 493.971201 
L 537.865915 487.047956 
L 544.575025 495.093222 
z
" clip-path="url(#pbcd9ab00df)" style="fill: #212121"/>
    <path d="M 448.705786 489.455518 
L 455.300455 507.79337 
z
" clip-path="url(#pbcd9ab00df)" style="fill: #1f1f1f"/>
    <path d="M 455.300455 507.79337 
L 448.705786 489.455518 
L 460.22935 475.295525 
L 466.846517 494.55603 
z
" clip-path="url(#pbcd9ab00df)" style="fill: #262626"/>
    <path d="M 485.039712 502.12209 
L 478.418242 484.211188 
L 489.977319 474.025287 
L 496.599577 490.635309 
z
" clip-path="url(#pbcd9ab00df)" style="fill: #2a2a2a"/>
    <path d="M 455.300455 507.79337 
z
" clip-path="url(#pbcd9ab00df)" style="fill: #171717"/>
    <path d="M 473.478357 514.31036 
L 466.846517 494.55603 
L 478.418242 484.211188 
L 485.039712 502.12209 
z
" clip-path="url(#pbcd9ab00df)" style="fill: #202020"/>
    <path d="M 503.237741 507.037059 
L 496.599577 490.635309 
L 508.166347 484.039029 
L 514.808729 499.157705 
z
" clip-path="url(#pbcd9ab00df)" style="fill: #232323"/>
    <path d="M 455.300455 507.79337 
L 466.846517 494.55603 
L 473.478357 514.31036 
z
" clip-path="url(#pbcd9ab00df)" style="fill: #191919"/>
    <path d="M 556.119797 482.510135 
z
" clip-path="url(#pbcd9ab00df)" style="fill: #303030"/>
    <path d="M 544.575025 495.093222 
L 556.119797 482.510135 
z
" clip-path="url(#pbcd9ab00df)" style="fill: #2a2a2a"/>
    <path d="M 521.472241 514.635407 
L 514.808729 499.157705 
L 526.353494 493.971201 
L 533.027901 507.069234 
z
" clip-path="url(#pbcd9ab00df)" style="fill: #1b1b1b"/>
    <path d="M 473.478357 514.31036 
z
" clip-path="url(#pbcd9ab00df)" style="fill: #111111"/>
    <path d="M 491.672449 519.709788 
L 485.039712 502.12209 
L 496.599577 490.635309 
L 503.237741 507.037059 
z
" clip-path="url(#pbcd9ab00df)" style="fill: #1b1b1b"/>
    <path d="M 473.478357 514.31036 
L 485.039712 502.12209 
L 491.672449 519.709788 
z
" clip-path="url(#pbcd9ab00df)" style="fill: #141414"/>
    <path d="M 539.73641 517.772684 
L 533.027901 507.069234 
L 544.575025 495.093222 
z
" clip-path="url(#pbcd9ab00df)" style="fill: #1a1a1a"/>
    <path d="M 509.892792 523.205955 
L 503.237741 507.037059 
L 514.808729 499.157705 
L 521.472241 514.635407 
z
" clip-path="url(#pbcd9ab00df)" style="fill: #161616"/>
    <path d="M 498.3126 535.943916 
L 491.672449 519.709788 
L 503.237741 507.037059 
L 509.892792 523.205955 
z
" clip-path="url(#pbcd9ab00df)" style="fill: #0d0d0d"/>
    <path d="M 491.672449 519.709788 
L 498.3126 535.943916 
z
" clip-path="url(#pbcd9ab00df)" style="fill: #070707"/>
    <path d="M 528.156547 529.47698 
L 521.472241 514.635407 
L 533.027901 507.069234 
L 539.73641 517.772684 
z
" clip-path="url(#pbcd9ab00df)" style="fill: #121212"/>
    <path d="M 498.3126 535.943916 
z
" clip-path="url(#pbcd9ab00df)"/>
    <path d="M 516.565851 539.109399 
L 509.892792 523.205955 
L 521.472241 514.635407 
L 528.156547 529.47698 
z
" clip-path="url(#pbcd9ab00df)" style="fill: #0a0a0a"/>
    <path d="M 539.73641 517.772684 
z
" clip-path="url(#pbcd9ab00df)" style="fill: #131313"/>
    <path d="M 498.3126 535.943916 
L 509.892792 523.205955 
L 516.565851 539.109399 
z
" clip-path="url(#pbcd9ab00df)" style="fill: #040404"/>
    <path d="M 528.156547 529.47698 
L 539.73641 517.772684 
z
" clip-path="url(#pbcd9ab00df)" style="fill: #0d0d0d"/>
    <path d="M 516.565851 539.109399 
L 528.156547 529.47698 
z
" clip-path="url(#pbcd9ab00df)" style="fill: #040404"/>
    <path d="M 516.565851 539.109399 
z
" clip-path="url(#pbcd9ab00df)"/>
   </g>
   <g id="Path3DCollection_1">
    <defs>
     <path id="C0_0_5147de826f" d="M 0 2.236068 
C 0.593012 2.236068 1.161816 2.000462 1.581139 1.581139 
C 2.000462 1.161816 2.236068 0.593012 2.236068 -0 
C 2.236068 -0.593012 2.000462 -1.161816 1.581139 -1.581139 
C 1.161816 -2.000462 0.593012 -2.236068 0 -2.236068 
C -0.593012 -2.236068 -1.161816 -2.000462 -1.581139 -1.581139 
C -2.000462 -1.161816 -2.236068 -0.593012 -2.236068 0 
C -2.236068 0.593012 -2.000462 1.161816 -1.581139 1.581139 
C -1.161816 2.000462 -0.593012 2.236068 0 2.236068 
z
"/>
    </defs>
    <g clip-path="url(#pbcd9ab00df)">
     <use xlink:href="#C0_0_5147de826f" x="578.777723" y="157.021907" style="fill-opacity: 0.3; stroke: #000000; stroke-opacity: 0.3; stroke-width: 2"/>
    </g>
    <g clip-path="url(#pbcd9ab00df)">
     <use xlink:href="#C0_0_5147de826f" x="600.256835" y="221.476222" style="fill-opacity: 0.316253; stroke: #000000; stroke-opacity: 0.316253; stroke-width: 2"/>
    </g>
    <g clip-path="url(#pbcd9ab00df)">
     <use xlink:href="#C0_0_5147de826f" x="625.837196" y="274.977579" style="fill-opacity: 0.373597; stroke: #000000; stroke-opacity: 0.373597; stroke-width: 2"/>
    </g>
    <g clip-path="url(#pbcd9ab00df)">
     <use xlink:href="#C0_0_5147de826f" x="519.98779" y="213.357772" style="fill-opacity: 0.37644; stroke: #000000; stroke-opacity: 0.37644; stroke-width: 2"/>
    </g>
    <g clip-path="url(#pbcd9ab00df)">
     <use xlink:href="#C0_0_5147de826f" x="651.625813" y="333.863272" style="fill-opacity: 0.423325; stroke: #000000; stroke-opacity: 0.423325; stroke-width: 2"/>
    </g>
    <g clip-path="url(#pbcd9ab00df)">
     <use xlink:href="#C0_0_5147de826f" x="526.26592" y="312.399366" style="fill-opacity: 0.511804; stroke: #000000; stroke-opacity: 0.511804; stroke-width: 2"/>
    </g>
    <g clip-path="url(#pbcd9ab00df)">
     <use xlink:href="#C0_0_5147de826f" x="429.626451" y="237.274288" style="fill-opacity: 0.51487; stroke: #000000; stroke-opacity: 0.51487; stroke-width: 2"/>
    </g>
    <g clip-path="url(#pbcd9ab00df)">
     <use xlink:href="#C0_0_5147de826f" x="674.891027" y="352.559031" style="fill-opacity: 0.524415; stroke: #000000; stroke-opacity: 0.524415; stroke-width: 2"/>
    </g>
    <g clip-path="url(#pbcd9ab00df)">
     <use xlink:href="#C0_0_5147de826f" x="556.991029" y="369.992653" style="fill-opacity: 0.618681; stroke: #000000; stroke-opacity: 0.618681; stroke-width: 2"/>
    </g>
    <g clip-path="url(#pbcd9ab00df)">
     <use xlink:href="#C0_0_5147de826f" x="410.996802" y="238.923746" style="fill-opacity: 0.787405; stroke: #000000; stroke-opacity: 0.787405; stroke-width: 2"/>
    </g>
    <g clip-path="url(#pbcd9ab00df)">
     <use xlink:href="#C0_0_5147de826f" x="387.969396" y="415.027763" style="fill-opacity: 0.862191; stroke: #000000; stroke-opacity: 0.862191; stroke-width: 2"/>
    </g>
    <g clip-path="url(#pbcd9ab00df)">
     <use xlink:href="#C0_0_5147de826f" x="421.318857" y="437.27848" style="fill-opacity: 0.911402; stroke: #000000; stroke-opacity: 0.911402; stroke-width: 2"/>
    </g>
    <g clip-path="url(#pbcd9ab00df)">
     <use xlink:href="#C0_0_5147de826f" x="418.8572" y="490.629282" style="fill-opacity: 0.915328; stroke: #000000; stroke-opacity: 0.915328; stroke-width: 2"/>
    </g>
    <g clip-path="url(#pbcd9ab00df)">
     <use xlink:href="#C0_0_5147de826f" x="489.255344" y="525.869643" style="fill-opacity: 0.961266; stroke: #000000; stroke-opacity: 0.961266; stroke-width: 2"/>
    </g>
    <g clip-path="url(#pbcd9ab00df)">
     <use xlink:href="#C0_0_5147de826f" x="524.736006" y="553.30385" style="stroke: #000000; stroke-width: 2"/>
    </g>
   </g>
  </g>
 </g>
 <defs>
  <clipPath id="pbcd9ab00df">
   <rect x="239.4" y="86.4" width="554.4" height="554.4"/>
  </clipPath>
 </defs>
</svg>
