<?xml version="1.0" encoding="utf-8" standalone="no"?>
<!DOCTYPE svg PUBLIC "-//W3C//DTD SVG 1.1//EN"
  "http://www.w3.org/Graphics/SVG/1.1/DTD/svg11.dtd">
<svg xmlns:xlink="http://www.w3.org/1999/xlink" width="1008pt" height="720pt" viewBox="0 0 1008 720" xmlns="http://www.w3.org/2000/svg" version="1.1">
 <metadata>
  <rdf:RDF xmlns:dc="http://purl.org/dc/elements/1.1/" xmlns:cc="http://creativecommons.org/ns#" xmlns:rdf="http://www.w3.org/1999/02/22-rdf-syntax-ns#">
   <cc:Work>
    <dc:type rdf:resource="http://purl.org/dc/dcmitype/StillImage"/>
    <dc:date>2024-12-12T17:31:42.503912</dc:date>
    <dc:format>image/svg+xml</dc:format>
    <dc:creator>
     <cc:Agent>
      <dc:title>Matplotlib v3.7.5, https://matplotlib.org/</dc:title>
     </cc:Agent>
    </dc:creator>
   </cc:Work>
  </rdf:RDF>
 </metadata>
 <defs>
  <style type="text/css">*{stroke-linejoin: round; stroke-linecap: butt}</style>
 </defs>
 <g id="figure_1">
  <g id="patch_1">
   <path d="M 0 720 
L 1008 720 
L 1008 0 
L 0 0 
z
" style="fill: #ffffff"/>
  </g>
  <g id="axes_1">
   <g id="patch_2">
    <path d="M 126 640.8 
L 907.2 640.8 
L 907.2 86.4 
L 126 86.4 
z
" style="fill: #ffffff"/>
   </g>
   <g id="PathCollection_1">
    <defs>
     <path id="m15e1daa29e" d="M 0 3 
C 0.795609 3 1.55874 2.683901 2.12132 2.12132 
C 2.683901 1.55874 3 0.795609 3 0 
C 3 -0.795609 2.683901 -1.55874 2.12132 -2.12132 
C 1.55874 -2.683901 0.795609 -3 0 -3 
C -0.795609 -3 -1.55874 -2.683901 -2.12132 -2.12132 
C -2.683901 -1.55874 -3 -0.795609 -3 0 
C -3 0.795609 -2.683901 1.55874 -2.12132 2.12132 
C -1.55874 2.683901 -0.795609 3 0 3 
z
" style="stroke: #000000; stroke-width: 2"/>
    </defs>
    <g clip-path="url(#p1cb88e83f6)">
     <use xlink:href="#m15e1daa29e" x="825.44108" y="126.216146" style="stroke: #000000; stroke-width: 2"/>
     <use xlink:href="#m15e1daa29e" x="808.923284" y="162.504509" style="stroke: #000000; stroke-width: 2"/>
     <use xlink:href="#m15e1daa29e" x="792.405488" y="177.120655" style="stroke: #000000; stroke-width: 2"/>
     <use xlink:href="#m15e1daa29e" x="775.887692" y="206.352948" style="stroke: #000000; stroke-width: 2"/>
     <use xlink:href="#m15e1daa29e" x="759.369896" y="228.529169" style="stroke: #000000; stroke-width: 2"/>
     <use xlink:href="#m15e1daa29e" x="742.8521" y="243.145315" style="stroke: #000000; stroke-width: 2"/>
     <use xlink:href="#m15e1daa29e" x="726.334305" y="257.761462" style="stroke: #000000; stroke-width: 2"/>
     <use xlink:href="#m15e1daa29e" x="713.120068" y="272.377608" style="stroke: #000000; stroke-width: 2"/>
     <use xlink:href="#m15e1daa29e" x="696.602272" y="294.049824" style="stroke: #000000; stroke-width: 2"/>
     <use xlink:href="#m15e1daa29e" x="680.084476" y="308.665971" style="stroke: #000000; stroke-width: 2"/>
     <use xlink:href="#m15e1daa29e" x="663.56668" y="315.722041" style="stroke: #000000; stroke-width: 2"/>
     <use xlink:href="#m15e1daa29e" x="647.048884" y="330.338187" style="stroke: #000000; stroke-width: 2"/>
     <use xlink:href="#m15e1daa29e" x="630.531088" y="337.898263" style="stroke: #000000; stroke-width: 2"/>
     <use xlink:href="#m15e1daa29e" x="614.013292" y="344.954334" style="stroke: #000000; stroke-width: 2"/>
    </g>
   </g>
   <g id="PathCollection_2">
    <defs>
     <path id="m64ca4a0364" d="M -0 3 
L 3 -3 
L -3 -3 
z
" style="stroke: #000000; stroke-width: 2"/>
    </defs>
    <g clip-path="url(#p1cb88e83f6)">
     <use xlink:href="#m64ca4a0364" x="871.690909" y="191.736801" style="stroke: #000000; stroke-width: 2"/>
     <use xlink:href="#m64ca4a0364" x="858.476672" y="228.529169" style="stroke: #000000; stroke-width: 2"/>
     <use xlink:href="#m64ca4a0364" x="841.958876" y="264.817532" style="stroke: #000000; stroke-width: 2"/>
     <use xlink:href="#m64ca4a0364" x="825.44108" y="279.433678" style="stroke: #000000; stroke-width: 2"/>
     <use xlink:href="#m64ca4a0364" x="808.923284" y="294.049824" style="stroke: #000000; stroke-width: 2"/>
     <use xlink:href="#m64ca4a0364" x="792.405488" y="315.722041" style="stroke: #000000; stroke-width: 2"/>
     <use xlink:href="#m64ca4a0364" x="775.887692" y="330.338187" style="stroke: #000000; stroke-width: 2"/>
     <use xlink:href="#m64ca4a0364" x="759.369896" y="344.954334" style="stroke: #000000; stroke-width: 2"/>
     <use xlink:href="#m64ca4a0364" x="742.8521" y="359.57048" style="stroke: #000000; stroke-width: 2"/>
     <use xlink:href="#m64ca4a0364" x="726.334305" y="367.130555" style="stroke: #000000; stroke-width: 2"/>
     <use xlink:href="#m64ca4a0364" x="713.120068" y="374.186626" style="stroke: #000000; stroke-width: 2"/>
     <use xlink:href="#m64ca4a0364" x="696.602272" y="381.746701" style="stroke: #000000; stroke-width: 2"/>
     <use xlink:href="#m64ca4a0364" x="680.084476" y="388.802772" style="stroke: #000000; stroke-width: 2"/>
     <use xlink:href="#m64ca4a0364" x="663.56668" y="388.802772" style="stroke: #000000; stroke-width: 2"/>
     <use xlink:href="#m64ca4a0364" x="647.048884" y="388.802772" style="stroke: #000000; stroke-width: 2"/>
     <use xlink:href="#m64ca4a0364" x="630.531088" y="388.802772" style="stroke: #000000; stroke-width: 2"/>
     <use xlink:href="#m64ca4a0364" x="614.013292" y="374.186626" style="stroke: #000000; stroke-width: 2"/>
    </g>
   </g>
   <g id="PathCollection_3">
    <defs>
     <path id="m82a3222042" d="M 3 0 
L -3 -3 
L -3 3 
z
" style="stroke: #000000; stroke-width: 2"/>
    </defs>
    <g clip-path="url(#p1cb88e83f6)">
     <use xlink:href="#m82a3222042" x="871.690909" y="235.58524" style="stroke: #000000; stroke-width: 2"/>
     <use xlink:href="#m82a3222042" x="858.476672" y="250.201386" style="stroke: #000000; stroke-width: 2"/>
     <use xlink:href="#m82a3222042" x="841.958876" y="286.489749" style="stroke: #000000; stroke-width: 2"/>
     <use xlink:href="#m82a3222042" x="825.44108" y="315.722041" style="stroke: #000000; stroke-width: 2"/>
     <use xlink:href="#m82a3222042" x="808.923284" y="344.954334" style="stroke: #000000; stroke-width: 2"/>
     <use xlink:href="#m82a3222042" x="792.405488" y="367.130555" style="stroke: #000000; stroke-width: 2"/>
     <use xlink:href="#m82a3222042" x="775.887692" y="359.57048" style="stroke: #000000; stroke-width: 2"/>
     <use xlink:href="#m82a3222042" x="759.369896" y="367.130555" style="stroke: #000000; stroke-width: 2"/>
     <use xlink:href="#m82a3222042" x="742.8521" y="381.746701" style="stroke: #000000; stroke-width: 2"/>
     <use xlink:href="#m82a3222042" x="726.334305" y="396.362848" style="stroke: #000000; stroke-width: 2"/>
     <use xlink:href="#m82a3222042" x="713.120068" y="403.418918" style="stroke: #000000; stroke-width: 2"/>
     <use xlink:href="#m82a3222042" x="696.602272" y="410.978994" style="stroke: #000000; stroke-width: 2"/>
     <use xlink:href="#m82a3222042" x="680.084476" y="418.035064" style="stroke: #000000; stroke-width: 2"/>
     <use xlink:href="#m82a3222042" x="663.56668" y="418.035064" style="stroke: #000000; stroke-width: 2"/>
     <use xlink:href="#m82a3222042" x="647.048884" y="418.035064" style="stroke: #000000; stroke-width: 2"/>
     <use xlink:href="#m82a3222042" x="630.531088" y="410.978994" style="stroke: #000000; stroke-width: 2"/>
     <use xlink:href="#m82a3222042" x="614.013292" y="403.418918" style="stroke: #000000; stroke-width: 2"/>
    </g>
   </g>
   <g id="PathCollection_4">
    <defs>
     <path id="m8ff5f167d4" d="M -3 -0 
L 3 3 
L 3 -3 
z
" style="stroke: #000000; stroke-width: 2"/>
    </defs>
    <g clip-path="url(#p1cb88e83f6)">
     <use xlink:href="#m8ff5f167d4" x="871.690909" y="279.433678" style="stroke: #000000; stroke-width: 2"/>
     <use xlink:href="#m8ff5f167d4" x="858.476672" y="323.282117" style="stroke: #000000; stroke-width: 2"/>
     <use xlink:href="#m8ff5f167d4" x="841.958876" y="352.514409" style="stroke: #000000; stroke-width: 2"/>
     <use xlink:href="#m8ff5f167d4" x="825.44108" y="374.186626" style="stroke: #000000; stroke-width: 2"/>
     <use xlink:href="#m8ff5f167d4" x="808.923284" y="396.362848" style="stroke: #000000; stroke-width: 2"/>
     <use xlink:href="#m8ff5f167d4" x="792.405488" y="418.035064" style="stroke: #000000; stroke-width: 2"/>
     <use xlink:href="#m8ff5f167d4" x="775.887692" y="432.651211" style="stroke: #000000; stroke-width: 2"/>
     <use xlink:href="#m8ff5f167d4" x="759.369896" y="447.267357" style="stroke: #000000; stroke-width: 2"/>
     <use xlink:href="#m8ff5f167d4" x="742.8521" y="461.883503" style="stroke: #000000; stroke-width: 2"/>
     <use xlink:href="#m8ff5f167d4" x="726.334305" y="468.939573" style="stroke: #000000; stroke-width: 2"/>
     <use xlink:href="#m8ff5f167d4" x="713.120068" y="483.55572" style="stroke: #000000; stroke-width: 2"/>
     <use xlink:href="#m8ff5f167d4" x="696.602272" y="491.115795" style="stroke: #000000; stroke-width: 2"/>
     <use xlink:href="#m8ff5f167d4" x="680.084476" y="498.171866" style="stroke: #000000; stroke-width: 2"/>
     <use xlink:href="#m8ff5f167d4" x="663.56668" y="505.731941" style="stroke: #000000; stroke-width: 2"/>
     <use xlink:href="#m8ff5f167d4" x="647.048884" y="520.348087" style="stroke: #000000; stroke-width: 2"/>
     <use xlink:href="#m8ff5f167d4" x="630.531088" y="520.348087" style="stroke: #000000; stroke-width: 2"/>
     <use xlink:href="#m8ff5f167d4" x="614.013292" y="527.404158" style="stroke: #000000; stroke-width: 2"/>
     <use xlink:href="#m8ff5f167d4" x="580.9777" y="432.651211" style="stroke: #000000; stroke-width: 2"/>
     <use xlink:href="#m8ff5f167d4" x="567.763463" y="491.115795" style="stroke: #000000; stroke-width: 2"/>
     <use xlink:href="#m8ff5f167d4" x="551.245667" y="520.348087" style="stroke: #000000; stroke-width: 2"/>
     <use xlink:href="#m8ff5f167d4" x="534.727871" y="527.404158" style="stroke: #000000; stroke-width: 2"/>
     <use xlink:href="#m8ff5f167d4" x="518.210075" y="542.020304" style="stroke: #000000; stroke-width: 2"/>
     <use xlink:href="#m8ff5f167d4" x="501.692279" y="556.63645" style="stroke: #000000; stroke-width: 2"/>
     <use xlink:href="#m8ff5f167d4" x="485.174483" y="564.196526" style="stroke: #000000; stroke-width: 2"/>
     <use xlink:href="#m8ff5f167d4" x="452.138891" y="571.252597" style="stroke: #000000; stroke-width: 2"/>
     <use xlink:href="#m8ff5f167d4" x="438.924655" y="578.812672" style="stroke: #000000; stroke-width: 2"/>
     <use xlink:href="#m8ff5f167d4" x="422.406859" y="578.812672" style="stroke: #000000; stroke-width: 2"/>
     <use xlink:href="#m8ff5f167d4" x="405.889063" y="585.868743" style="stroke: #000000; stroke-width: 2"/>
    </g>
   </g>
   <g id="PathCollection_5">
    <defs>
     <path id="m26ea61e061" d="M 0 -3 
L -3 3 
L 3 3 
z
" style="stroke: #000000; stroke-width: 2"/>
    </defs>
    <g clip-path="url(#p1cb88e83f6)">
     <use xlink:href="#m26ea61e061" x="871.690909" y="520.348087" style="stroke: #000000; stroke-width: 2"/>
     <use xlink:href="#m26ea61e061" x="858.476672" y="520.348087" style="stroke: #000000; stroke-width: 2"/>
     <use xlink:href="#m26ea61e061" x="841.958876" y="527.404158" style="stroke: #000000; stroke-width: 2"/>
     <use xlink:href="#m26ea61e061" x="825.44108" y="527.404158" style="stroke: #000000; stroke-width: 2"/>
     <use xlink:href="#m26ea61e061" x="808.923284" y="534.964234" style="stroke: #000000; stroke-width: 2"/>
     <use xlink:href="#m26ea61e061" x="792.405488" y="542.020304" style="stroke: #000000; stroke-width: 2"/>
     <use xlink:href="#m26ea61e061" x="775.887692" y="549.58038" style="stroke: #000000; stroke-width: 2"/>
     <use xlink:href="#m26ea61e061" x="759.369896" y="549.58038" style="stroke: #000000; stroke-width: 2"/>
     <use xlink:href="#m26ea61e061" x="742.8521" y="556.63645" style="stroke: #000000; stroke-width: 2"/>
     <use xlink:href="#m26ea61e061" x="726.334305" y="556.63645" style="stroke: #000000; stroke-width: 2"/>
     <use xlink:href="#m26ea61e061" x="713.120068" y="564.196526" style="stroke: #000000; stroke-width: 2"/>
     <use xlink:href="#m26ea61e061" x="696.602272" y="564.196526" style="stroke: #000000; stroke-width: 2"/>
     <use xlink:href="#m26ea61e061" x="680.084476" y="549.58038" style="stroke: #000000; stroke-width: 2"/>
     <use xlink:href="#m26ea61e061" x="663.56668" y="556.63645" style="stroke: #000000; stroke-width: 2"/>
     <use xlink:href="#m26ea61e061" x="647.048884" y="564.196526" style="stroke: #000000; stroke-width: 2"/>
     <use xlink:href="#m26ea61e061" x="630.531088" y="564.196526" style="stroke: #000000; stroke-width: 2"/>
     <use xlink:href="#m26ea61e061" x="614.013292" y="556.63645" style="stroke: #000000; stroke-width: 2"/>
     <use xlink:href="#m26ea61e061" x="580.9777" y="564.196526" style="stroke: #000000; stroke-width: 2"/>
    </g>
   </g>
   <g id="PathCollection_6">
    <defs>
     <path id="mc96939b812" d="M -3 3 
L 3 3 
L 3 -3 
L -3 -3 
z
" style="stroke: #000000; stroke-width: 2"/>
    </defs>
    <g clip-path="url(#p1cb88e83f6)">
     <use xlink:href="#mc96939b812" x="580.9777" y="388.802772" style="stroke: #000000; stroke-width: 2"/>
     <use xlink:href="#mc96939b812" x="567.763463" y="447.267357" style="stroke: #000000; stroke-width: 2"/>
     <use xlink:href="#mc96939b812" x="551.245667" y="483.55572" style="stroke: #000000; stroke-width: 2"/>
     <use xlink:href="#mc96939b812" x="534.727871" y="498.171866" style="stroke: #000000; stroke-width: 2"/>
     <use xlink:href="#mc96939b812" x="518.210075" y="520.348087" style="stroke: #000000; stroke-width: 2"/>
     <use xlink:href="#mc96939b812" x="501.692279" y="527.404158" style="stroke: #000000; stroke-width: 2"/>
     <use xlink:href="#mc96939b812" x="485.174483" y="542.020304" style="stroke: #000000; stroke-width: 2"/>
     <use xlink:href="#mc96939b812" x="452.138891" y="549.58038" style="stroke: #000000; stroke-width: 2"/>
     <use xlink:href="#mc96939b812" x="438.924655" y="556.63645" style="stroke: #000000; stroke-width: 2"/>
     <use xlink:href="#mc96939b812" x="422.406859" y="564.196526" style="stroke: #000000; stroke-width: 2"/>
     <use xlink:href="#mc96939b812" x="405.889063" y="571.252597" style="stroke: #000000; stroke-width: 2"/>
     <use xlink:href="#mc96939b812" x="389.371267" y="578.812672" style="stroke: #000000; stroke-width: 2"/>
     <use xlink:href="#mc96939b812" x="372.853471" y="585.868743" style="stroke: #000000; stroke-width: 2"/>
     <use xlink:href="#mc96939b812" x="356.335675" y="578.812672" style="stroke: #000000; stroke-width: 2"/>
     <use xlink:href="#mc96939b812" x="339.817879" y="593.428818" style="stroke: #000000; stroke-width: 2"/>
     <use xlink:href="#mc96939b812" x="323.300083" y="600.484889" style="stroke: #000000; stroke-width: 2"/>
     <use xlink:href="#mc96939b812" x="306.782287" y="600.484889" style="stroke: #000000; stroke-width: 2"/>
    </g>
   </g>
   <g id="PathCollection_7">
    <defs>
     <path id="m728e54a0fe" d="M -0 4.242641 
L 4.242641 0 
L 0 -4.242641 
L -4.242641 -0 
z
" style="stroke: #000000; stroke-width: 2"/>
    </defs>
    <g clip-path="url(#p1cb88e83f6)">
     <use xlink:href="#m728e54a0fe" x="567.763463" y="615.101035" style="stroke: #000000; stroke-width: 2"/>
     <use xlink:href="#m728e54a0fe" x="551.245667" y="615.101035" style="stroke: #000000; stroke-width: 2"/>
     <use xlink:href="#m728e54a0fe" x="534.727871" y="615.101035" style="stroke: #000000; stroke-width: 2"/>
     <use xlink:href="#m728e54a0fe" x="518.210075" y="615.101035" style="stroke: #000000; stroke-width: 2"/>
     <use xlink:href="#m728e54a0fe" x="501.692279" y="615.101035" style="stroke: #000000; stroke-width: 2"/>
     <use xlink:href="#m728e54a0fe" x="485.174483" y="615.101035" style="stroke: #000000; stroke-width: 2"/>
     <use xlink:href="#m728e54a0fe" x="452.138891" y="615.101035" style="stroke: #000000; stroke-width: 2"/>
     <use xlink:href="#m728e54a0fe" x="438.924655" y="615.101035" style="stroke: #000000; stroke-width: 2"/>
     <use xlink:href="#m728e54a0fe" x="422.406859" y="615.101035" style="stroke: #000000; stroke-width: 2"/>
     <use xlink:href="#m728e54a0fe" x="405.889063" y="615.101035" style="stroke: #000000; stroke-width: 2"/>
     <use xlink:href="#m728e54a0fe" x="389.371267" y="615.101035" style="stroke: #000000; stroke-width: 2"/>
     <use xlink:href="#m728e54a0fe" x="372.853471" y="615.101035" style="stroke: #000000; stroke-width: 2"/>
     <use xlink:href="#m728e54a0fe" x="356.335675" y="615.101035" style="stroke: #000000; stroke-width: 2"/>
     <use xlink:href="#m728e54a0fe" x="339.817879" y="615.101035" style="stroke: #000000; stroke-width: 2"/>
     <use xlink:href="#m728e54a0fe" x="323.300083" y="615.101035" style="stroke: #000000; stroke-width: 2"/>
     <use xlink:href="#m728e54a0fe" x="306.782287" y="615.101035" style="stroke: #000000; stroke-width: 2"/>
    </g>
   </g>
   <g id="matplotlib.axis_1">
    <g id="xtick_1">
     <g id="line2d_1">
      <path d="M 161.425682 640.8 
L 161.425682 86.4 
" clip-path="url(#p1cb88e83f6)" style="fill: none; stroke: #b0b0b0; stroke-width: 0.8; stroke-linecap: square"/>
     </g>
     <g id="line2d_2">
      <defs>
       <path id="m8fee61b841" d="M 0 0 
L 0 3.5 
" style="stroke: #000000; stroke-width: 0.8"/>
      </defs>
      <g>
       <use xlink:href="#m8fee61b841" x="161.425682" y="640.8" style="stroke: #000000; stroke-width: 0.8"/>
      </g>
     </g>
     <g id="text_1">
      <!-- 0.0 -->
      <g transform="translate(143.932245 664.516562) scale(0.22 -0.22)">
       <defs>
        <path id="DejaVuSans-30" d="M 2034 4250 
Q 1547 4250 1301 3770 
Q 1056 3291 1056 2328 
Q 1056 1369 1301 889 
Q 1547 409 2034 409 
Q 2525 409 2770 889 
Q 3016 1369 3016 2328 
Q 3016 3291 2770 3770 
Q 2525 4250 2034 4250 
z
M 2034 4750 
Q 2819 4750 3233 4129 
Q 3647 3509 3647 2328 
Q 3647 1150 3233 529 
Q 2819 -91 2034 -91 
Q 1250 -91 836 529 
Q 422 1150 422 2328 
Q 422 3509 836 4129 
Q 1250 4750 2034 4750 
z
" transform="scale(0.015625)"/>
        <path id="DejaVuSans-2e" d="M 684 794 
L 1344 794 
L 1344 0 
L 684 0 
L 684 794 
z
" transform="scale(0.015625)"/>
       </defs>
       <use xlink:href="#DejaVuSans-30"/>
       <use xlink:href="#DejaVuSans-2e" x="63.623047"/>
       <use xlink:href="#DejaVuSans-30" x="95.410156"/>
      </g>
     </g>
    </g>
    <g id="xtick_2">
     <g id="line2d_3">
      <path d="M 326.603642 640.8 
L 326.603642 86.4 
" clip-path="url(#p1cb88e83f6)" style="fill: none; stroke: #b0b0b0; stroke-width: 0.8; stroke-linecap: square"/>
     </g>
     <g id="line2d_4">
      <g>
       <use xlink:href="#m8fee61b841" x="326.603642" y="640.8" style="stroke: #000000; stroke-width: 0.8"/>
      </g>
     </g>
     <g id="text_2">
      <!-- 0.5 -->
      <g transform="translate(309.110204 664.516562) scale(0.22 -0.22)">
       <defs>
        <path id="DejaVuSans-35" d="M 691 4666 
L 3169 4666 
L 3169 4134 
L 1269 4134 
L 1269 2991 
Q 1406 3038 1543 3061 
Q 1681 3084 1819 3084 
Q 2600 3084 3056 2656 
Q 3513 2228 3513 1497 
Q 3513 744 3044 326 
Q 2575 -91 1722 -91 
Q 1428 -91 1123 -41 
Q 819 9 494 109 
L 494 744 
Q 775 591 1075 516 
Q 1375 441 1709 441 
Q 2250 441 2565 725 
Q 2881 1009 2881 1497 
Q 2881 1984 2565 2268 
Q 2250 2553 1709 2553 
Q 1456 2553 1204 2497 
Q 953 2441 691 2322 
L 691 4666 
z
" transform="scale(0.015625)"/>
       </defs>
       <use xlink:href="#DejaVuSans-30"/>
       <use xlink:href="#DejaVuSans-2e" x="63.623047"/>
       <use xlink:href="#DejaVuSans-35" x="95.410156"/>
      </g>
     </g>
    </g>
    <g id="xtick_3">
     <g id="line2d_5">
      <path d="M 491.781602 640.8 
L 491.781602 86.4 
" clip-path="url(#p1cb88e83f6)" style="fill: none; stroke: #b0b0b0; stroke-width: 0.8; stroke-linecap: square"/>
     </g>
     <g id="line2d_6">
      <g>
       <use xlink:href="#m8fee61b841" x="491.781602" y="640.8" style="stroke: #000000; stroke-width: 0.8"/>
      </g>
     </g>
     <g id="text_3">
      <!-- 1.0 -->
      <g transform="translate(474.288164 664.516562) scale(0.22 -0.22)">
       <defs>
        <path id="DejaVuSans-31" d="M 794 531 
L 1825 531 
L 1825 4091 
L 703 3866 
L 703 4441 
L 1819 4666 
L 2450 4666 
L 2450 531 
L 3481 531 
L 3481 0 
L 794 0 
L 794 531 
z
" transform="scale(0.015625)"/>
       </defs>
       <use xlink:href="#DejaVuSans-31"/>
       <use xlink:href="#DejaVuSans-2e" x="63.623047"/>
       <use xlink:href="#DejaVuSans-30" x="95.410156"/>
      </g>
     </g>
    </g>
    <g id="xtick_4">
     <g id="line2d_7">
      <path d="M 656.959561 640.8 
L 656.959561 86.4 
" clip-path="url(#p1cb88e83f6)" style="fill: none; stroke: #b0b0b0; stroke-width: 0.8; stroke-linecap: square"/>
     </g>
     <g id="line2d_8">
      <g>
       <use xlink:href="#m8fee61b841" x="656.959561" y="640.8" style="stroke: #000000; stroke-width: 0.8"/>
      </g>
     </g>
     <g id="text_4">
      <!-- 1.5 -->
      <g transform="translate(639.466124 664.516562) scale(0.22 -0.22)">
       <use xlink:href="#DejaVuSans-31"/>
       <use xlink:href="#DejaVuSans-2e" x="63.623047"/>
       <use xlink:href="#DejaVuSans-35" x="95.410156"/>
      </g>
     </g>
    </g>
    <g id="xtick_5">
     <g id="line2d_9">
      <path d="M 822.137521 640.8 
L 822.137521 86.4 
" clip-path="url(#p1cb88e83f6)" style="fill: none; stroke: #b0b0b0; stroke-width: 0.8; stroke-linecap: square"/>
     </g>
     <g id="line2d_10">
      <g>
       <use xlink:href="#m8fee61b841" x="822.137521" y="640.8" style="stroke: #000000; stroke-width: 0.8"/>
      </g>
     </g>
     <g id="text_5">
      <!-- 2.0 -->
      <g transform="translate(804.644084 664.516562) scale(0.22 -0.22)">
       <defs>
        <path id="DejaVuSans-32" d="M 1228 531 
L 3431 531 
L 3431 0 
L 469 0 
L 469 531 
Q 828 903 1448 1529 
Q 2069 2156 2228 2338 
Q 2531 2678 2651 2914 
Q 2772 3150 2772 3378 
Q 2772 3750 2511 3984 
Q 2250 4219 1831 4219 
Q 1534 4219 1204 4116 
Q 875 4013 500 3803 
L 500 4441 
Q 881 4594 1212 4672 
Q 1544 4750 1819 4750 
Q 2544 4750 2975 4387 
Q 3406 4025 3406 3419 
Q 3406 3131 3298 2873 
Q 3191 2616 2906 2266 
Q 2828 2175 2409 1742 
Q 1991 1309 1228 531 
z
" transform="scale(0.015625)"/>
       </defs>
       <use xlink:href="#DejaVuSans-32"/>
       <use xlink:href="#DejaVuSans-2e" x="63.623047"/>
       <use xlink:href="#DejaVuSans-30" x="95.410156"/>
      </g>
     </g>
    </g>
    <g id="text_6">
     <!-- $R, Ком$ -->
     <g transform="translate(480.41 689.808437) scale(0.22 -0.22)">
      <defs>
       <path id="DejaVuSans-Oblique-52" d="M 1613 4147 
L 1294 2491 
L 2106 2491 
Q 2584 2491 2879 2755 
Q 3175 3019 3175 3444 
Q 3175 3784 2976 3965 
Q 2778 4147 2406 4147 
L 1613 4147 
z
M 2772 2241 
Q 2972 2194 3105 2009 
Q 3238 1825 3413 1275 
L 3809 0 
L 3144 0 
L 2778 1197 
Q 2638 1659 2453 1815 
Q 2269 1972 1888 1972 
L 1191 1972 
L 806 0 
L 172 0 
L 1081 4666 
L 2503 4666 
Q 3150 4666 3495 4373 
Q 3841 4081 3841 3531 
Q 3841 3044 3547 2687 
Q 3253 2331 2772 2241 
z
" transform="scale(0.015625)"/>
       <path id="DejaVuSans-2c" d="M 750 794 
L 1409 794 
L 1409 256 
L 897 -744 
L 494 -744 
L 750 256 
L 750 794 
z
" transform="scale(0.015625)"/>
       <path id="DejaVuSans-Oblique-41a" d="M 1081 4666 
L 1713 4666 
L 1266 2359 
L 3969 4666 
L 4778 4666 
L 2616 2822 
L 3966 0 
L 3278 0 
L 2125 2403 
L 1103 1531 
L 806 0 
L 175 0 
L 1081 4666 
z
" transform="scale(0.015625)"/>
       <path id="DejaVuSans-Oblique-43e" d="M 1625 -91 
Q 1009 -91 651 289 
Q 294 669 294 1325 
Q 294 1706 417 2101 
Q 541 2497 738 2766 
Q 1047 3184 1428 3384 
Q 1809 3584 2291 3584 
Q 2888 3584 3255 3212 
Q 3622 2841 3622 2241 
Q 3622 1825 3500 1412 
Q 3378 1000 3181 728 
Q 2875 309 2494 109 
Q 2113 -91 1625 -91 
z
M 891 1344 
Q 891 869 1089 633 
Q 1288 397 1691 397 
Q 2269 397 2648 901 
Q 3028 1406 3028 2181 
Q 3028 2634 2825 2865 
Q 2622 3097 2228 3097 
Q 1903 3097 1650 2945 
Q 1397 2794 1197 2484 
Q 1050 2253 970 1956 
Q 891 1659 891 1344 
z
" transform="scale(0.015625)"/>
       <path id="DejaVuSans-Oblique-43c" d="M 922 3500 
L 1763 3500 
L 2300 1156 
L 3753 3500 
L 4588 3500 
L 3906 0 
L 3328 0 
L 3903 2950 
L 2494 672 
L 1919 672 
L 1394 2950 
L 819 0 
L 241 0 
L 922 3500 
z
" transform="scale(0.015625)"/>
      </defs>
      <use xlink:href="#DejaVuSans-Oblique-52" transform="translate(0 0.09375)"/>
      <use xlink:href="#DejaVuSans-2c" transform="translate(69.482422 0.09375)"/>
      <use xlink:href="#DejaVuSans-Oblique-41a" transform="translate(120.751953 0.09375)"/>
      <use xlink:href="#DejaVuSans-Oblique-43e" transform="translate(191.748047 0.09375)"/>
      <use xlink:href="#DejaVuSans-Oblique-43c" transform="translate(252.929688 0.09375)"/>
     </g>
    </g>
   </g>
   <g id="matplotlib.axis_2">
    <g id="ytick_1">
     <g id="line2d_11">
      <path d="M 126 615.60504 
L 907.2 615.60504 
" clip-path="url(#p1cb88e83f6)" style="fill: none; stroke: #b0b0b0; stroke-width: 0.8; stroke-linecap: square"/>
     </g>
     <g id="line2d_12">
      <defs>
       <path id="m3ee87a143b" d="M 0 0 
L -3.5 0 
" style="stroke: #000000; stroke-width: 0.8"/>
      </defs>
      <g>
       <use xlink:href="#m3ee87a143b" x="126" y="615.60504" style="stroke: #000000; stroke-width: 0.8"/>
      </g>
     </g>
     <g id="text_7">
      <!-- 0 -->
      <g transform="translate(105.0025 623.963321) scale(0.22 -0.22)">
       <use xlink:href="#DejaVuSans-30"/>
      </g>
     </g>
    </g>
    <g id="ytick_2">
     <g id="line2d_13">
      <path d="M 126 514.804032 
L 907.2 514.804032 
" clip-path="url(#p1cb88e83f6)" style="fill: none; stroke: #b0b0b0; stroke-width: 0.8; stroke-linecap: square"/>
     </g>
     <g id="line2d_14">
      <g>
       <use xlink:href="#m3ee87a143b" x="126" y="514.804032" style="stroke: #000000; stroke-width: 0.8"/>
      </g>
     </g>
     <g id="text_8">
      <!-- 2 -->
      <g transform="translate(105.0025 523.162313) scale(0.22 -0.22)">
       <use xlink:href="#DejaVuSans-32"/>
      </g>
     </g>
    </g>
    <g id="ytick_3">
     <g id="line2d_15">
      <path d="M 126 414.003024 
L 907.2 414.003024 
" clip-path="url(#p1cb88e83f6)" style="fill: none; stroke: #b0b0b0; stroke-width: 0.8; stroke-linecap: square"/>
     </g>
     <g id="line2d_16">
      <g>
       <use xlink:href="#m3ee87a143b" x="126" y="414.003024" style="stroke: #000000; stroke-width: 0.8"/>
      </g>
     </g>
     <g id="text_9">
      <!-- 4 -->
      <g transform="translate(105.0025 422.361305) scale(0.22 -0.22)">
       <defs>
        <path id="DejaVuSans-34" d="M 2419 4116 
L 825 1625 
L 2419 1625 
L 2419 4116 
z
M 2253 4666 
L 3047 4666 
L 3047 1625 
L 3713 1625 
L 3713 1100 
L 3047 1100 
L 3047 0 
L 2419 0 
L 2419 1100 
L 313 1100 
L 313 1709 
L 2253 4666 
z
" transform="scale(0.015625)"/>
       </defs>
       <use xlink:href="#DejaVuSans-34"/>
      </g>
     </g>
    </g>
    <g id="ytick_4">
     <g id="line2d_17">
      <path d="M 126 313.202016 
L 907.2 313.202016 
" clip-path="url(#p1cb88e83f6)" style="fill: none; stroke: #b0b0b0; stroke-width: 0.8; stroke-linecap: square"/>
     </g>
     <g id="line2d_18">
      <g>
       <use xlink:href="#m3ee87a143b" x="126" y="313.202016" style="stroke: #000000; stroke-width: 0.8"/>
      </g>
     </g>
     <g id="text_10">
      <!-- 6 -->
      <g transform="translate(105.0025 321.560297) scale(0.22 -0.22)">
       <defs>
        <path id="DejaVuSans-36" d="M 2113 2584 
Q 1688 2584 1439 2293 
Q 1191 2003 1191 1497 
Q 1191 994 1439 701 
Q 1688 409 2113 409 
Q 2538 409 2786 701 
Q 3034 994 3034 1497 
Q 3034 2003 2786 2293 
Q 2538 2584 2113 2584 
z
M 3366 4563 
L 3366 3988 
Q 3128 4100 2886 4159 
Q 2644 4219 2406 4219 
Q 1781 4219 1451 3797 
Q 1122 3375 1075 2522 
Q 1259 2794 1537 2939 
Q 1816 3084 2150 3084 
Q 2853 3084 3261 2657 
Q 3669 2231 3669 1497 
Q 3669 778 3244 343 
Q 2819 -91 2113 -91 
Q 1303 -91 875 529 
Q 447 1150 447 2328 
Q 447 3434 972 4092 
Q 1497 4750 2381 4750 
Q 2619 4750 2861 4703 
Q 3103 4656 3366 4563 
z
" transform="scale(0.015625)"/>
       </defs>
       <use xlink:href="#DejaVuSans-36"/>
      </g>
     </g>
    </g>
    <g id="ytick_5">
     <g id="line2d_19">
      <path d="M 126 212.401008 
L 907.2 212.401008 
" clip-path="url(#p1cb88e83f6)" style="fill: none; stroke: #b0b0b0; stroke-width: 0.8; stroke-linecap: square"/>
     </g>
     <g id="line2d_20">
      <g>
       <use xlink:href="#m3ee87a143b" x="126" y="212.401008" style="stroke: #000000; stroke-width: 0.8"/>
      </g>
     </g>
     <g id="text_11">
      <!-- 8 -->
      <g transform="translate(105.0025 220.759289) scale(0.22 -0.22)">
       <defs>
        <path id="DejaVuSans-38" d="M 2034 2216 
Q 1584 2216 1326 1975 
Q 1069 1734 1069 1313 
Q 1069 891 1326 650 
Q 1584 409 2034 409 
Q 2484 409 2743 651 
Q 3003 894 3003 1313 
Q 3003 1734 2745 1975 
Q 2488 2216 2034 2216 
z
M 1403 2484 
Q 997 2584 770 2862 
Q 544 3141 544 3541 
Q 544 4100 942 4425 
Q 1341 4750 2034 4750 
Q 2731 4750 3128 4425 
Q 3525 4100 3525 3541 
Q 3525 3141 3298 2862 
Q 3072 2584 2669 2484 
Q 3125 2378 3379 2068 
Q 3634 1759 3634 1313 
Q 3634 634 3220 271 
Q 2806 -91 2034 -91 
Q 1263 -91 848 271 
Q 434 634 434 1313 
Q 434 1759 690 2068 
Q 947 2378 1403 2484 
z
M 1172 3481 
Q 1172 3119 1398 2916 
Q 1625 2713 2034 2713 
Q 2441 2713 2670 2916 
Q 2900 3119 2900 3481 
Q 2900 3844 2670 4047 
Q 2441 4250 2034 4250 
Q 1625 4250 1398 4047 
Q 1172 3844 1172 3481 
z
" transform="scale(0.015625)"/>
       </defs>
       <use xlink:href="#DejaVuSans-38"/>
      </g>
     </g>
    </g>
    <g id="ytick_6">
     <g id="line2d_21">
      <path d="M 126 111.6 
L 907.2 111.6 
" clip-path="url(#p1cb88e83f6)" style="fill: none; stroke: #b0b0b0; stroke-width: 0.8; stroke-linecap: square"/>
     </g>
     <g id="line2d_22">
      <g>
       <use xlink:href="#m3ee87a143b" x="126" y="111.6" style="stroke: #000000; stroke-width: 0.8"/>
      </g>
     </g>
     <g id="text_12">
      <!-- 10 -->
      <g transform="translate(91.005 119.958281) scale(0.22 -0.22)">
       <use xlink:href="#DejaVuSans-31"/>
       <use xlink:href="#DejaVuSans-30" x="63.623047"/>
      </g>
     </g>
    </g>
    <g id="text_13">
     <!-- $R_L, КОм$ -->
     <g transform="translate(82.429688 406.28) rotate(-90) scale(0.22 -0.22)">
      <defs>
       <path id="DejaVuSans-Oblique-4c" d="M 1075 4666 
L 1709 4666 
L 909 525 
L 3181 525 
L 3078 0 
L 172 0 
L 1075 4666 
z
" transform="scale(0.015625)"/>
       <path id="DejaVuSans-Oblique-41e" d="M 2919 4238 
Q 2400 4238 2003 3986 
Q 1606 3734 1313 3219 
Q 1125 2891 1026 2522 
Q 928 2153 928 1778 
Q 928 1128 1239 775 
Q 1550 422 2119 422 
Q 2631 422 3032 676 
Q 3434 931 3719 1434 
Q 3909 1772 4009 2142 
Q 4109 2513 4109 2881 
Q 4109 3528 3796 3883 
Q 3484 4238 2919 4238 
z
M 2100 -91 
Q 1241 -91 748 418 
Q 256 928 256 1813 
Q 256 2319 448 2847 
Q 641 3375 978 3788 
Q 1375 4272 1862 4511 
Q 2350 4750 2938 4750 
Q 3794 4750 4287 4245 
Q 4781 3741 4781 2869 
Q 4781 2331 4593 1812 
Q 4406 1294 4056 872 
Q 3656 384 3173 146 
Q 2691 -91 2100 -91 
z
" transform="scale(0.015625)"/>
      </defs>
      <use xlink:href="#DejaVuSans-Oblique-52" transform="translate(0 0.78125)"/>
      <use xlink:href="#DejaVuSans-Oblique-4c" transform="translate(69.482422 -15.625) scale(0.7)"/>
      <use xlink:href="#DejaVuSans-2c" transform="translate(111.21582 0.78125)"/>
      <use xlink:href="#DejaVuSans-Oblique-41a" transform="translate(162.485352 0.78125)"/>
      <use xlink:href="#DejaVuSans-Oblique-41e" transform="translate(233.481445 0.78125)"/>
      <use xlink:href="#DejaVuSans-Oblique-43c" transform="translate(312.192383 0.78125)"/>
     </g>
    </g>
   </g>
   <g id="line2d_23">
    <path d="M 161.509091 615.6 
L 192.726387 613.581982 
L 220.128102 611.563964 
L 244.373496 609.545946 
L 265.97822 607.527928 
L 285.351404 605.50991 
L 302.821812 603.491892 
L 318.656649 601.473874 
L 336.480737 598.951351 
L 352.437495 596.428829 
L 366.805761 593.906306 
L 379.81149 591.383784 
L 391.639722 588.861261 
L 402.44344 586.338739 
L 412.350229 583.816216 
L 421.467332 581.293694 
L 431.492347 578.266667 
L 440.642147 575.23964 
L 449.026553 572.212613 
L 456.737748 569.185586 
L 463.853684 566.158559 
L 470.440725 563.131532 
L 476.555725 560.104505 
L 483.15826 556.572973 
L 489.251375 553.041441 
L 494.891836 549.50991 
L 500.128279 545.978378 
L 505.00261 542.446847 
L 510.176225 538.410811 
L 514.970911 534.374775 
L 519.426828 530.338739 
L 523.578655 526.302703 
L 527.923303 521.762162 
L 531.958175 517.221622 
L 535.715261 512.681081 
L 539.597609 507.636036 
L 543.204077 502.590991 
L 546.886327 497.041441 
L 550.301618 491.491892 
L 553.755739 485.437838 
L 556.956697 479.383784 
L 560.169761 472.825225 
L 563.366406 465.762162 
L 566.320127 458.699099 
L 569.245485 451.131532 
L 572.123706 443.059459 
L 574.939489 434.482883 
L 577.680719 425.401802 
L 580.33814 415.816216 
L 582.905002 405.726126 
L 585.376721 395.131532 
L 587.85365 383.527928 
L 590.213917 371.41982 
L 592.545571 358.302703 
L 594.828866 344.176577 
L 597.048394 329.041441 
L 599.192626 312.897297 
L 601.31096 295.23964 
L 603.381017 276.068468 
L 605.385781 255.383784 
L 607.312975 233.185586 
L 609.19136 208.969369 
L 611.036834 182.230631 
L 612.82636 152.969369 
L 614.543447 121.185586 
L 615.021103 111.6 
L 615.021103 111.6 
" clip-path="url(#p1cb88e83f6)" style="fill: none; stroke: #1f77b4; stroke-width: 1.5; stroke-linecap: square"/>
   </g>
   <g id="patch_3">
    <path d="M 126 640.8 
L 126 86.4 
" style="fill: none; stroke: #000000; stroke-width: 2; stroke-linejoin: miter; stroke-linecap: square"/>
   </g>
   <g id="patch_4">
    <path d="M 907.2 640.8 
L 907.2 86.4 
" style="fill: none; stroke: #000000; stroke-width: 2; stroke-linejoin: miter; stroke-linecap: square"/>
   </g>
   <g id="patch_5">
    <path d="M 126 640.8 
L 907.2 640.8 
" style="fill: none; stroke: #000000; stroke-width: 2; stroke-linejoin: miter; stroke-linecap: square"/>
   </g>
   <g id="patch_6">
    <path d="M 126 86.4 
L 907.2 86.4 
" style="fill: none; stroke: #000000; stroke-width: 2; stroke-linejoin: miter; stroke-linecap: square"/>
   </g>
   <g id="legend_1">
    <g id="patch_7">
     <path d="M 141.4 330.043125 
L 225.7975 330.043125 
Q 230.1975 330.043125 230.1975 325.643125 
L 230.1975 101.8 
Q 230.1975 97.4 225.7975 97.4 
L 141.4 97.4 
Q 137 97.4 137 101.8 
L 137 325.643125 
Q 137 330.043125 141.4 330.043125 
z
" style="fill: #ffffff; opacity: 0.8; stroke: #cccccc; stroke-linejoin: miter"/>
    </g>
    <g id="PathCollection_8">
     <g>
      <use xlink:href="#m15e1daa29e" x="167.8" y="117.141562" style="stroke: #000000; stroke-width: 2"/>
     </g>
    </g>
    <g id="text_14">
     <!-- 0 -->
     <g transform="translate(207.4 122.916562) scale(0.22 -0.22)">
      <use xlink:href="#DejaVuSans-30"/>
     </g>
    </g>
    <g id="PathCollection_9">
     <g>
      <use xlink:href="#m64ca4a0364" x="167.8" y="149.433437" style="stroke: #000000; stroke-width: 2"/>
     </g>
    </g>
    <g id="text_15">
     <!-- 1 -->
     <g transform="translate(207.4 155.208437) scale(0.22 -0.22)">
      <use xlink:href="#DejaVuSans-31"/>
     </g>
    </g>
    <g id="PathCollection_10">
     <g>
      <use xlink:href="#m82a3222042" x="167.8" y="181.725312" style="stroke: #000000; stroke-width: 2"/>
     </g>
    </g>
    <g id="text_16">
     <!-- 2 -->
     <g transform="translate(207.4 187.500312) scale(0.22 -0.22)">
      <use xlink:href="#DejaVuSans-32"/>
     </g>
    </g>
    <g id="PathCollection_11">
     <g>
      <use xlink:href="#m8ff5f167d4" x="167.8" y="214.017187" style="stroke: #000000; stroke-width: 2"/>
     </g>
    </g>
    <g id="text_17">
     <!-- 3 -->
     <g transform="translate(207.4 219.792187) scale(0.22 -0.22)">
      <defs>
       <path id="DejaVuSans-33" d="M 2597 2516 
Q 3050 2419 3304 2112 
Q 3559 1806 3559 1356 
Q 3559 666 3084 287 
Q 2609 -91 1734 -91 
Q 1441 -91 1130 -33 
Q 819 25 488 141 
L 488 750 
Q 750 597 1062 519 
Q 1375 441 1716 441 
Q 2309 441 2620 675 
Q 2931 909 2931 1356 
Q 2931 1769 2642 2001 
Q 2353 2234 1838 2234 
L 1294 2234 
L 1294 2753 
L 1863 2753 
Q 2328 2753 2575 2939 
Q 2822 3125 2822 3475 
Q 2822 3834 2567 4026 
Q 2313 4219 1838 4219 
Q 1578 4219 1281 4162 
Q 984 4106 628 3988 
L 628 4550 
Q 988 4650 1302 4700 
Q 1616 4750 1894 4750 
Q 2613 4750 3031 4423 
Q 3450 4097 3450 3541 
Q 3450 3153 3228 2886 
Q 3006 2619 2597 2516 
z
" transform="scale(0.015625)"/>
      </defs>
      <use xlink:href="#DejaVuSans-33"/>
     </g>
    </g>
    <g id="PathCollection_12">
     <g>
      <use xlink:href="#m26ea61e061" x="167.8" y="246.309062" style="stroke: #000000; stroke-width: 2"/>
     </g>
    </g>
    <g id="text_18">
     <!-- 4 -->
     <g transform="translate(207.4 252.084062) scale(0.22 -0.22)">
      <use xlink:href="#DejaVuSans-34"/>
     </g>
    </g>
    <g id="PathCollection_13">
     <g>
      <use xlink:href="#mc96939b812" x="167.8" y="278.600937" style="stroke: #000000; stroke-width: 2"/>
     </g>
    </g>
    <g id="text_19">
     <!-- 5 -->
     <g transform="translate(207.4 284.375937) scale(0.22 -0.22)">
      <use xlink:href="#DejaVuSans-35"/>
     </g>
    </g>
    <g id="PathCollection_14">
     <g>
      <use xlink:href="#m728e54a0fe" x="167.8" y="310.892812" style="stroke: #000000; stroke-width: 2"/>
     </g>
    </g>
    <g id="text_20">
     <!-- 6 -->
     <g transform="translate(207.4 316.667812) scale(0.22 -0.22)">
      <use xlink:href="#DejaVuSans-36"/>
     </g>
    </g>
   </g>
  </g>
 </g>
 <defs>
  <clipPath id="p1cb88e83f6">
   <rect x="126" y="86.4" width="781.2" height="554.4"/>
  </clipPath>
 </defs>
</svg>
